<?xml version="1.0" encoding="UTF-8" standalone="no"?>
<svg
   xmlns:dc="http://purl.org/dc/elements/1.1/"
   xmlns:cc="http://creativecommons.org/ns#"
   xmlns:rdf="http://www.w3.org/1999/02/22-rdf-syntax-ns#"
   xmlns:svg="http://www.w3.org/2000/svg"
   xmlns="http://www.w3.org/2000/svg"
   xmlns:sodipodi="http://sodipodi.sourceforge.net/DTD/sodipodi-0.dtd"
   xmlns:inkscape="http://www.inkscape.org/namespaces/inkscape"
   version="1.0"
   width="500"
   height="500"
   viewBox="0 0 374.99999 374.99999"
   preserveAspectRatio="xMidYMid meet"
   id="svg4850"
   sodipodi:docname="picsvg_download.svg.2022_12_18_18_12_20.0.svg"
   inkscape:version="0.92.0 r15299"
   style="enable-background:new"
   inkscape:export-filename="D:\Roman\export-192.png"
   inkscape:export-xdpi="36.863998"
   inkscape:export-ydpi="36.863998">
  <metadata
     id="metadata4856">
    <rdf:RDF>
      <cc:Work
         rdf:about="">
        <dc:format>image/svg+xml</dc:format>
        <dc:type
           rdf:resource="http://purl.org/dc/dcmitype/StillImage" />
        <dc:title />
      </cc:Work>
    </rdf:RDF>
  </metadata>
  <defs
     id="defs4854">
    <filter
       inkscape:collect="always"
       style="color-interpolation-filters:sRGB"
       id="filter4817"
       x="-0.095403276"
       width="1.1908066"
       y="-0.04376078"
       height="1.0875216">
      <feGaussianBlur
         inkscape:collect="always"
         stdDeviation="1.3903425"
         id="feGaussianBlur4819" />
    </filter>
  </defs>
  <sodipodi:namedview
     pagecolor="#ffffff"
     bordercolor="#666666"
     borderopacity="1"
     objecttolerance="10"
     gridtolerance="10"
     guidetolerance="10"
     inkscape:pageopacity="0"
     inkscape:pageshadow="2"
     inkscape:window-width="1920"
     inkscape:window-height="1017"
     id="namedview4852"
     showgrid="false"
     inkscape:zoom="1.4212846"
     inkscape:cx="286.32326"
     inkscape:cy="245.90786"
     inkscape:window-x="-8"
     inkscape:window-y="-8"
     inkscape:window-maximized="1"
     inkscape:current-layer="g5598"
     units="px"
     fit-margin-top="0"
     fit-margin-left="0"
     fit-margin-right="0"
     fit-margin-bottom="0" />
  <g
     inkscape:groupmode="layer"
     id="layer22"
     inkscape:label="bodyFix"
     style="display:inline"
     transform="translate(1.0134387e-6,-63.748058)">
    <g
       id="g172">
      <g
         style="display:inline"
         transform="matrix(0.75555137,0,0,0.73816115,-2.7756835,78.551686)"
         id="g5598">
        <g
           id="g335">
          <path
             style="enable-background:new;display:inline;fill:#ffffff;fill-opacity:1;stroke:none;stroke-width:0.75px;stroke-linecap:butt;stroke-linejoin:miter;stroke-opacity:1"
             d="m 343.53898,368.2467 5.55405,8.25756 11.10807,-6.93634 -4.8008,-3.86543 z"
             id="path5439"
             inkscape:connector-curvature="0"
             transform="matrix(1.3235368,0,0,1.3547178,3.6737191,-106.41536)" />
          <path
             style="enable-background:new;display:inline;fill:#ffffff;fill-opacity:1;stroke:none;stroke-width:0.75px;stroke-linecap:butt;stroke-linejoin:miter;stroke-opacity:1"
             d="m 316.61497,434.56624 21.15015,4.18182 -12.10917,-25.34112 z"
             id="path5437"
             inkscape:connector-curvature="0"
             transform="matrix(1.3235368,0,0,1.3547178,3.6737191,-106.41536)" />
          <path
             style="enable-background:new;display:inline;fill:#ffffff;fill-opacity:1;stroke:none;stroke-width:0.75px;stroke-linecap:butt;stroke-linejoin:miter;stroke-opacity:1"
             d="m 228.22662,349.87174 -3.37135,5.96295 24.98199,7.12355 0.55241,-7.54574 z"
             id="path5435"
             inkscape:connector-curvature="0"
             transform="matrix(1.3235368,0,0,1.3547178,3.6737191,-106.41536)" />
          <path
             inkscape:connector-curvature="0"
             id="path5432"
             d="m 424.5279,151.19096 0.71718,6.17428 19.53895,-0.82987 3.54586,-8.0335 z"
             style="fill:#ffffff;fill-opacity:1;stroke:none;stroke-width:0.75px;stroke-linecap:butt;stroke-linejoin:miter;stroke-opacity:1" />
          <g
             transform="matrix(1.6538696,0,0,1.7704188,3.5083308,-43.454319)"
             id="g5430">
            <path
               style="fill:#958891;fill-opacity:1;stroke:none;stroke-width:0.75px;stroke-linecap:butt;stroke-linejoin:miter;stroke-opacity:1"
               d="m 258.37101,231.72989 10.19243,-1.13287 28.13117,-1.96731 2.50654,8.83883 -39.57687,-1.31923 z"
               id="path4863"
               inkscape:connector-curvature="0" />
            <path
               style="fill:#303133;fill-opacity:1;stroke:none;stroke-width:0.75px;stroke-linecap:butt;stroke-linejoin:miter;stroke-opacity:1"
               d="m 158.30749,250.1991 0.26385,5.67268 2.50653,3.29808 25.92285,4.22153 4.15557,-5.27691 1.91289,-6.53019 -14.97326,-1.38519 z"
               id="path4857"
               inkscape:connector-curvature="0" />
            <path
               style="fill:#303133;fill-opacity:1;stroke:none;stroke-width:0.75px;stroke-linecap:butt;stroke-linejoin:miter;stroke-opacity:1"
               d="m 194.78417,251.25449 7.32172,14.31363 28.09958,4.48538 11.4773,-11.60922 2.63845,-8.44306 14.64345,-1.97885 2.37461,-6.3323 -17.54575,0.79154 -8.25248,11.4363 -4.5709,2.51865 -20.61908,-11.38245 z"
               id="path4859"
               inkscape:connector-curvature="0" />
            <path
               style="fill:#1d1d26;fill-opacity:1;stroke:none;stroke-width:0.75px;stroke-linecap:butt;stroke-linejoin:miter;stroke-opacity:1"
               d="m 299.20115,237.46854 -37.4661,-0.26384 -2.77038,10.81767 -14.64345,1.97885 -2.63845,8.44306 15.03921,-5.40884 18.4692,3.03423 12.6646,8.44307 5.67269,13.45614 5.91183,3.00127 z"
               id="path4861"
               inkscape:connector-curvature="0" />
            <path
               style="fill:#d0cbcf;fill-opacity:1;stroke:none;stroke-width:0.75px;stroke-linecap:butt;stroke-linejoin:miter;stroke-opacity:1"
               d="m 243.06796,250.33102 -0.65962,4.55134 1.12135,2.83634 15.63286,-4.88114 19.06286,4.41941 12.86248,12.59865 3.1002,8.64094 5.07903,0.52769 0.26384,-13.71998 C 293.555,255.17896 286.61554,252.09462 279.87445,247.56064 l -16.49036,-0.92346 z"
               id="path4865"
               inkscape:connector-curvature="0"
               sodipodi:nodetypes="cccccccccccc" />
            <path
               style="fill:#585758;fill-opacity:1;stroke:none;stroke-width:0.75px;stroke-linecap:butt;stroke-linejoin:miter;stroke-opacity:1"
               d="m 131.20336,230.73694 7.04291,4.43097 2.14552,-0.74627 -3.17164,-9.70149 -4.47761,-1.21269 z"
               id="path4885"
               inkscape:connector-curvature="0" />
            <path
               style="fill:#fcece5;fill-opacity:1;stroke:none;stroke-width:0.75px;stroke-linecap:butt;stroke-linejoin:miter;stroke-opacity:1"
               d="m 261.33928,241.69007 -18.1394,-0.39577 2.69565,-10.88385 6.86876,-7.38747 L 255.5,217.8 l 11.31408,1.33126 -2.04481,10.22402 -6.39826,2.37461 z"
               id="path4850"
               inkscape:connector-curvature="0" />
            <path
               style="fill:#fcece5;fill-opacity:1;stroke:none;stroke-width:0.75px;stroke-linecap:butt;stroke-linejoin:miter;stroke-opacity:1"
               d="m 133.83579,218.73549 15.10517,4.02365 10.28999,6.46422 4.74922,18.93094 -6.33229,1.84692 -12.13692,-8.83884 -13.98382,-9.43249 z"
               id="path4852"
               inkscape:connector-curvature="0" />
            <path
               style="fill:#fcece5;fill-opacity:1;stroke:none;stroke-width:0.75px;stroke-linecap:butt;stroke-linejoin:miter;stroke-opacity:1"
               d="m 184.36226,247.03295 10.42191,4.22154 15.5669,-6.20038 -3.16823,-5.78172 -8.96867,3.9348 -6.79403,-1.25327 z"
               id="path4854"
               inkscape:connector-curvature="0" />
            <path
               style="fill:#ffffff;fill-opacity:1;stroke:none;stroke-width:0.75px;stroke-linecap:butt;stroke-linejoin:miter;stroke-opacity:1"
               d="m 236.40585,221.83567 9.48968,8.57478 L 255.5,217.8 l -18.76434,4.29952 z"
               id="path4845"
               inkscape:connector-curvature="0" />
            <path
               style="fill:#ffffff;fill-opacity:1;stroke:none;stroke-width:0.75px;stroke-linecap:butt;stroke-linejoin:miter;stroke-opacity:1"
               d="m 149.79846,220.64837 12.1369,2.77038 -2.17672,4.41942 -4.94711,-1.38519 z"
               id="path4847"
               inkscape:connector-curvature="0" />
            <path
               style="fill:#963536;fill-opacity:1;stroke:none;stroke-width:0.75px;stroke-linecap:butt;stroke-linejoin:miter;stroke-opacity:1"
               d="m 230.97015,256.43656 4.5709,-2.51865 10.35448,-23.50746 -14.36568,-7.55598 -15.85821,3.63807 -6.71641,3.91791 -1.77239,8.86194 z"
               id="path4837"
               inkscape:connector-curvature="0" />
            <path
               style="fill:#963536;fill-opacity:1;stroke:none;stroke-width:0.75px;stroke-linecap:butt;stroke-linejoin:miter;stroke-opacity:1"
               d="m 205.59701,225.74626 2.3321,12.59329 -14.64553,3.82463 -2.98508,-11.75373 3.07836,-4.85075 z"
               id="path4839"
               inkscape:connector-curvature="0" />
            <path
               style="fill:#963536;fill-opacity:1;stroke:none;stroke-width:0.75px;stroke-linecap:butt;stroke-linejoin:miter;stroke-opacity:1"
               d="m 162.03359,222.48134 -2.14553,14.1791 6.34328,12.22016 16.23134,-1.02612 9.23508,-7.27613 2.79851,-15.2985 z"
               id="path4841"
               inkscape:connector-curvature="0" />
            <path
               style="fill:#aeaeae;fill-opacity:1;stroke:none;stroke-width:0.75px;stroke-linecap:butt;stroke-linejoin:miter;stroke-opacity:1"
               d="M 39.972641,299.60423 0.65961454,299.34038 0.92346038,198.41936 Z"
               id="path4825"
               inkscape:connector-curvature="0"
               inkscape:label="top" />
            <path
               style="fill:#aeaeae;fill-opacity:1;stroke:none;stroke-width:0.75px;stroke-linecap:butt;stroke-linejoin:miter;stroke-opacity:1"
               d="m 19.260745,250.92468 44.853788,-10.02614 91.026807,24.53766 c 47.84404,11.47729 50.84816,3.02573 143.53212,34.43188 L 39.972641,299.60423 Z"
               id="path4829"
               inkscape:connector-curvature="0"
               sodipodi:nodetypes="cccccc"
               inkscape:label="base" />
            <path
               style="fill:#775956;fill-opacity:1;fill-rule:nonzero;stroke:none;stroke-width:0.58631843;stroke-linecap:butt;stroke-linejoin:miter;stroke-miterlimit:4;stroke-dasharray:none;stroke-opacity:1;paint-order:markers fill stroke"
               d="m 28.548201,329.72428 c -0.677379,-0.45183 -1.513442,-1.84464 -2.667875,-4.44446 -0.592335,-1.33396 -1.742718,-3.77657 -2.556407,-5.42803 -0.813689,-1.65146 -1.479435,-3.11738 -1.479435,-3.25759 0,-0.14021 0.06619,-0.29583 0.14709,-0.34583 0.299466,-0.18508 1.563031,-0.0404 4.924726,0.5639 4.867409,0.87496 9.212668,1.61261 15.388383,2.61233 5.020443,0.81271 22.59272,3.8418 22.656414,3.9055 0.01603,0.016 -3.703833,0.66349 -8.266368,1.43879 -12.181164,2.06993 -14.943582,2.55417 -18.183578,3.18751 -3.859782,0.7545 -7.252245,1.52146 -8.022388,1.81369 -0.827564,0.31401 -1.422168,0.29998 -1.940562,-0.0458 z"
               id="path4823"
               inkscape:connector-curvature="0"
               transform="scale(0.75)" />
            <path
               style="fill:#775956;fill-opacity:1;stroke:none;stroke-width:0.75px;stroke-linecap:butt;stroke-linejoin:miter;stroke-opacity:1"
               d="m 299.25373,297.7612 0.18657,-16.79105 -153.35821,-24.62687 -4.10448,5.78359 z"
               id="path4833"
               inkscape:connector-curvature="0" />
            <path
               style="fill:#1d1d26;fill-opacity:1;stroke:none;stroke-width:0.75px;stroke-linecap:butt;stroke-linejoin:miter;stroke-opacity:1"
               d="m 248.14699,256.46544 c -4.04826,5.78401 -5.35654,20.53525 -7.65153,32.05726 l 18.60113,4.88115 c 5.14203,-8.70558 8.21063,-17.17554 28.2315,-27.57189 -3.22131,-6.43572 -11.67662,-8.24136 -19.26074,-10.81767 z"
               id="path4797"
               inkscape:connector-curvature="0"
               sodipodi:nodetypes="cccccc"
               inkscape:label="cloth" />
            <path
               style="fill:#fcece5;fill-opacity:1;stroke:none;stroke-width:0.75px;stroke-linecap:butt;stroke-linejoin:miter;stroke-opacity:1"
               d="m 247.20149,256.90298 -12.3351,6.42703 -6.22833,16.42745 11.8574,8.76524 z"
               id="path4799"
               inkscape:connector-curvature="0"
               sodipodi:nodetypes="ccccc"
               inkscape:label="skinL" />
            <path
               style="fill:#fcece5;fill-opacity:1;stroke:none;stroke-width:0.75px;stroke-linecap:butt;stroke-linejoin:miter;stroke-opacity:1"
               d="m 287.32809,265.83196 -15.77958,9.82102 -10.54105,17.0709 c 4.93304,2.21473 12.55419,2.97149 24.81344,1.21268 l 8.02239,-14.36567 z"
               id="path4801"
               inkscape:connector-curvature="0"
               sodipodi:nodetypes="cccccc"
               inkscape:label="skinR" />
            <path
               style="fill:#1d1d26;fill-opacity:1;stroke:none;stroke-width:0.75px;stroke-linecap:butt;stroke-linejoin:miter;stroke-opacity:1"
               d="m 162.31343,261.19403 -20.33582,0.93284 -12.87314,3.54477 -7.46268,-2.61194 -13.43283,2.2388 -13.992543,-5.0373 c -5.874975,-1.029 -6.202137,-6.34494 -8.582092,-10.07463 l -6.343283,-6.34329 13.246268,-8.58209 13.43284,-1.30597 13.99254,0.18657 10.82089,-2.23881 c 14.6698,4.4153 22.80621,17.23068 31.52985,29.29105 z"
               id="path4791"
               inkscape:connector-curvature="0"
               sodipodi:nodetypes="ccccccccccccc" />
            <path
               style="fill:#fcece5;fill-opacity:1;stroke:none;stroke-width:0.75px;stroke-linecap:butt;stroke-linejoin:miter;stroke-opacity:1"
               d="M 89.552243,85.820895 295.14925,113.0597 268.95806,214.59363 c -25.12951,4.33713 -45.42541,10.74924 -82.76403,9.6601 -31.59176,0.62448 -57.86944,-11.77386 -84.32836,-23.22486 C 86.717367,165.77979 93.334053,124.8588 89.552243,85.820895 Z"
               id="path4787"
               inkscape:connector-curvature="0"
               sodipodi:nodetypes="cccccc" />
            <path
               style="fill:#cfaea2;fill-opacity:1;stroke:none;stroke-width:0.75px;stroke-linecap:butt;stroke-linejoin:miter;stroke-opacity:1"
               d="m 268.56344,230.59702 4.10447,4.01119 c 11.33481,-5.3684 21.94301,-11.05652 27.14552,-19.12314 l -0.46642,-24.62686 c -6.12908,17.53143 -18.02609,29.08129 -30.78357,39.73881 z"
               id="path4753"
               inkscape:connector-curvature="0"
               sodipodi:nodetypes="ccccc"
               inkscape:label="right_bottom" />
            <path
               style="fill:#cfaea2;fill-opacity:1;stroke:none;stroke-width:0.75px;stroke-linecap:butt;stroke-linejoin:miter;stroke-opacity:1"
               d="m 275.5597,166.88432 c -1.18506,36.85817 -5.70899,50.86652 -10.8209,60.72762 l 3.82464,2.98508 c 11.39949,-12.72405 26.28759,-21.8432 30.87686,-41.60448 l 0.18657,-22.85448 z"
               id="path4755"
               inkscape:connector-curvature="0"
               sodipodi:nodetypes="cccccc"
               inkscape:label="right_mid" />
            <path
               style="fill:#cfaea2;fill-opacity:1;stroke:none;stroke-width:0.75px;stroke-linecap:butt;stroke-linejoin:miter;stroke-opacity:1"
               d="m 275.5597,166.88432 c -2.21213,-43.69053 -11.52674,-53.53981 -19.40298,-70.24253 l -17.72388,-45.522387 4.47761,-2.238806 29.44439,8.908945 c 11.10058,9.812133 25.6987,20.123916 27.63785,28.627273 l -0.36582,79.721245 z"
               id="path4761"
               inkscape:connector-curvature="0"
               sodipodi:nodetypes="cccccccc"
               inkscape:label="right_top" />
            <path
               style="fill:#ddb7ac;fill-opacity:1;stroke:none;stroke-width:0.75px;stroke-linecap:butt;stroke-linejoin:miter;stroke-opacity:1"
               d="m 192.91045,131.43657 3.91791,5.22388 5.59701,-3.35821 c 9.27106,-12.62139 12.40086,-32.17577 12.96642,-39.738811 l -5.48582,-1.381342 -5.98806,24.702243 z"
               id="path4781"
               inkscape:connector-curvature="0"
               sodipodi:nodetypes="ccccccc"
               inkscape:label="inner4" />
            <path
               style="fill:#ddb7ac;fill-opacity:1;stroke:none;stroke-width:0.75px;stroke-linecap:butt;stroke-linejoin:miter;stroke-opacity:1"
               d="m 273.78731,141.23134 c -20.11687,-0.95475 -30.61746,-4.91425 -42.35074,-9.70149 L 224,127.5 c -4.05257,-2.75381 -4.71662,-3.79763 -5.99627,-5.85821 -10.65342,-18.76239 -6.18399,-16.10947 -9.32836,-23.600748 h 4.19777 l 8.95521,15.485078 35.91419,20.52238 13.6194,0.55971 z"
               id="path4783"
               inkscape:connector-curvature="0"
               sodipodi:nodetypes="cccccccccc"
               inkscape:label="inner5" />
            <path
               style="fill:#cfaea2;fill-opacity:1;stroke:none;stroke-width:0.75px;stroke-linecap:butt;stroke-linejoin:miter;stroke-opacity:1"
               d="M 268.28358,134.88806 256.52985,134.32836 220,112.6 212,97.299997 205.41045,51.119403 h 33.02239 l 34.51492,83.768657 z"
               id="path4763"
               inkscape:connector-curvature="0"
               inkscape:label="top_right" />
            <path
               style="fill:#ddb7ac;fill-opacity:1;stroke:none;stroke-width:0.75px;stroke-linecap:butt;stroke-linejoin:miter;stroke-opacity:1"
               d="m 156.85634,138.59232 c -3.3989,-1.10408 -7.07766,-2.82009 -10.47656,-6.49704 l -3.6392,-5.70583 c -9.00133,-22.88839 -6.94612,-23.88049 -7.5196,-30.078417 l 5.27692,-4.221533 1.66628,18.73139 z"
               id="path4777"
               inkscape:connector-curvature="0"
               sodipodi:nodetypes="ccccccc"
               inkscape:label="inner2" />
            <path
               style="fill:#ddb7ac;fill-opacity:1;stroke:none;stroke-width:0.75px;stroke-linecap:butt;stroke-linejoin:miter;stroke-opacity:1"
               d="m 153.03172,141.1847 c 2.0993,1.85657 4.94664,2.88198 8.16231,3.49814 2.88253,-0.10784 4.703,0.48087 10.44776,-0.3265 3.75424,-0.17672 7.72279,-0.74634 12.22015,-2.28545 l 6.85634,-3.17164 c 3.04344,-0.69757 5.67528,-2.56872 7.97575,-3.73134 l 0.37314,-4.66418 -2.23881,-3.17164 -6.52986,7.18283 -9.51491,4.75747 -11.3806,2.42537 -6.90299,-0.0933 -7.08955,-4.0112 -4.0112,-1.39925 z"
               id="path4779"
               inkscape:connector-curvature="0"
               sodipodi:nodetypes="ccccccccccccccc"
               inkscape:label="inner3" />
            <path
               style="fill:#cfaea2;fill-opacity:1;stroke:none;stroke-width:0.75px;stroke-linecap:butt;stroke-linejoin:miter;stroke-opacity:1"
               d="M 164.92537,45.895522 140,93.800002 l 2.16418,17.020888 c 5.06429,11.1501 8.8625,22.95669 20.33582,30.78359 14.16032,1.36463 20.81113,-2.96761 27.98507,-6.90299 8.13587,-4.80679 21.91285,-27.48274 21.65971,-50.541792 l -6.73433,-33.040295 z"
               id="path4765"
               inkscape:connector-curvature="0"
               sodipodi:nodetypes="cccccccc"
               inkscape:label="top_mid" />
            <path
               style="fill:#ddb7ac;fill-opacity:1;stroke:none;stroke-width:0.75px;stroke-linecap:butt;stroke-linejoin:miter;stroke-opacity:1"
               d="m 104.66418,116.60448 -3.87508,10.97228 20.7119,-11.21345 19.26074,-14.11575 -0.26384,-10.15806 -13.98383,10.68575 -9.49845,7.65153 z"
               id="path4775"
               inkscape:connector-curvature="0"
               sodipodi:nodetypes="cccccccc"
               inkscape:label="inner1" />
            <path
               style="fill:#cfaea2;fill-opacity:1;stroke:none;stroke-width:0.75px;stroke-linecap:butt;stroke-linejoin:miter;stroke-opacity:1"
               d="m 164.92536,45.895522 -22.27488,43.509596 c -9.88283,8.594345 -20.66887,19.956762 -37.9863,27.199362 l -40.485076,21.26866 c 4.06468,-14.4857 7.11505,-28.46424 19.309703,-47.01493 C 95.46317,80.74209 105.36315,66.543284 120.10672,60.960448 l 18.55933,-9.234701 z"
               id="path4767"
               inkscape:connector-curvature="0"
               sodipodi:nodetypes="cccccccc"
               inkscape:label="top_left" />
            <path
               style="fill:#f1d1c5;fill-opacity:1;stroke:none;stroke-width:0.75px;stroke-linecap:butt;stroke-linejoin:miter;stroke-opacity:1"
               d="m 64.179104,137.87314 20.647329,-12.40715 19.826557,-20.73278 8.14109,-11.852175 7.91538,-26.780349 -0.60274,-5.140238 C 87.31697,75.856908 71.472278,103.6187 64.179104,137.87314 Z"
               id="path4769"
               inkscape:connector-curvature="0"
               sodipodi:nodetypes="ccccccc"
               inkscape:label="top_left_light" />
            <path
               style="fill:#cfaea2;fill-opacity:1;stroke:none;stroke-width:0.75px;stroke-linecap:butt;stroke-linejoin:miter;stroke-opacity:1"
               d="m 115.82831,219.39511 -8.83883,0.26384 c -13.085286,-1.03377 -19.566878,-13.624 -27.308048,-24.00997 l -8.574985,-28.75919 c -2.317963,-25.43736 1.215745,-28.30399 3.561919,-35.75111 l 29.995814,-14.5342 c -5.736519,10.88013 -9.496435,25.61463 -8.228535,50.15338 -0.09838,3.32752 -3.13e-4,7.34261 1.978845,17.94152 z"
               id="path4771"
               inkscape:connector-curvature="0"
               inkscape:label="left_right"
               sodipodi:nodetypes="ccccccccc" />
            <path
               style="fill:#cfaea2;fill-opacity:1;stroke:none;stroke-width:0.75px;stroke-linecap:butt;stroke-linejoin:miter;stroke-opacity:1"
               d="m 64.179104,137.87314 10.489262,-6.73446 6.002489,71.96395 -2.704418,-0.46174 -10.02614,-12.00498 C 60.617005,171.1171 64.53618,155.17543 64.179104,137.87314 Z"
               id="path4773"
               inkscape:connector-curvature="0"
               sodipodi:nodetypes="cccccc"
               inkscape:label="left_left" />
            <path
               style="fill:#6e5954;fill-opacity:1;stroke:none;stroke-width:0.75px;stroke-linecap:butt;stroke-linejoin:miter;stroke-opacity:1"
               d="m 272.35484,57.789542 8.77287,-3.561918 18.66709,7.816432 0.19789,24.372759 C 297.63483,78.317497 284.35885,67.919628 272.35484,57.789542 Z"
               id="path4735"
               inkscape:connector-curvature="0"
               sodipodi:nodetypes="ccccc"
               inkscape:label="earR_bot_fill" />
            <path
               style="fill:#958177;fill-opacity:1;stroke:none;stroke-width:0.75px;stroke-linecap:butt;stroke-linejoin:miter;stroke-opacity:1"
               d="m 276.04868,53.56801 23.91622,-7.00628 -0.1701,15.482326 c -2.01398,-4.547498 -6.27467,-8.444213 -23.74612,-8.476046 z"
               id="path4731"
               inkscape:connector-curvature="0"
               sodipodi:nodetypes="cccc"
               inkscape:label="earR_mid_fill" />
            <path
               style="display:inline;fill:#cfaea2;fill-opacity:1;stroke:none;stroke-width:0.75px;stroke-linecap:butt;stroke-linejoin:miter;stroke-opacity:1"
               d="m 256.19428,51.78705 c 19.3272,-2.870685 33.66181,-7.88105 43.1388,-14.97325 l 0.63182,9.74793 -27.61006,11.227812 z"
               id="path4743"
               inkscape:connector-curvature="0"
               sodipodi:nodetypes="ccccc"
               inkscape:label="earR_top_fill" />
            <path
               style="fill:#d2bbb5;fill-opacity:1;fill-rule:nonzero;stroke:none;stroke-width:0.58631843;stroke-linecap:butt;stroke-linejoin:miter;stroke-miterlimit:4;stroke-dasharray:none;stroke-opacity:1;paint-order:markers fill stroke"
               d="m 228.67764,147.00568 c -0.83743,-0.35048 -1.28374,-0.65388 -4.26454,-2.89909 -2.43823,-1.83653 -4.3468,-2.9515 -5.7387,-3.35251 -0.59348,-0.17098 -0.93841,-0.19299 -1.7413,-0.11112 -0.55067,0.0562 -1.50494,0.10282 -2.12062,0.1037 -0.96118,0.001 -1.22488,-0.0469 -1.86567,-0.34182 -1.79355,-0.82536 -2.41113,-2.29867 -1.65545,-3.94928 0.5452,-1.19087 1.43965,-1.87366 2.09751,-1.60117 0.4651,0.19265 0.63013,0.62792 0.73133,1.92889 0.13553,1.7425 0.78403,2.72764 1.95899,2.97593 0.33745,0.0713 0.42755,0.0357 0.60878,-0.24094 0.2024,-0.30891 0.19978,-0.37181 -0.054,-1.29793 -0.31145,-1.13648 -0.35207,-2.72621 -0.0944,-3.69397 0.19461,-0.73086 0.9398,-2.18803 1.15303,-2.2547 0.0901,-0.0282 0.24313,0.39112 0.41,1.12361 0.2936,1.2888 0.66954,1.96473 1.82627,3.28358 1.41925,1.61815 4.28958,3.65976 7.32235,5.20824 1.34921,0.68888 1.50117,0.73768 2.27711,0.73134 0.64867,-0.005 1.03974,-0.0952 1.77912,-0.40908 2.075,-0.8808 5.08032,-2.91225 6.94761,-4.69624 1.35555,-1.29509 1.70318,-1.86977 1.82957,-3.02456 0.0556,-0.5075 0.16397,-0.94361 0.24094,-0.96911 0.31936,-0.10585 1.73559,2.44163 2.11396,3.80255 0.2088,0.75099 0.20844,0.79984 -0.009,1.20329 -0.41106,0.76329 -2.12307,1.93405 -4.44223,3.03781 -2.0987,0.99885 -3.08356,1.28684 -4.49585,1.31467 -0.67291,0.0133 -1.28053,0.0842 -1.35446,0.15813 -0.0737,0.0737 -0.18014,0.43128 -0.23645,0.79454 -0.12078,0.77925 -0.97795,2.54289 -1.46068,3.00538 -0.48515,0.4648 -0.95136,0.50971 -1.76337,0.16986 z"
               id="path4747"
               inkscape:connector-curvature="0"
               transform="scale(0.75)" />
            <path
               style="fill:#d2bbb5;fill-opacity:1;fill-rule:nonzero;stroke:none;stroke-width:0.58631843;stroke-linecap:butt;stroke-linejoin:miter;stroke-miterlimit:4;stroke-dasharray:none;stroke-opacity:1;paint-order:markers fill stroke"
               d="m 227.38331,165.30452 c -0.88456,-0.82603 -2.53568,-2.25565 -3.66916,-3.17691 -1.13348,-0.92126 -2.11099,-1.74546 -2.17225,-1.83155 -0.12958,-0.18209 0.60932,-1.78602 1.09287,-2.37232 0.40205,-0.48747 0.64306,-0.34865 0.97779,0.56322 0.56426,1.53713 2.08468,3.33619 3.77484,4.46664 1.07036,0.7159 1.71021,0.94423 2.32358,0.82916 0.61666,-0.11569 1.70072,-0.86531 3.13633,-2.16876 1.46837,-1.3332 2.45719,-1.91977 3.14091,-1.86317 0.38188,0.0316 0.47358,0.0918 0.50772,0.3331 0.0557,0.39379 -0.68313,1.45194 -1.61842,2.31786 -0.70962,0.65698 -5.46588,4.26336 -5.74772,4.35814 -0.076,0.0256 -0.86194,-0.62937 -1.74649,-1.45541 z"
               id="path4749"
               inkscape:connector-curvature="0"
               transform="scale(0.75)" />
            <g
               id="g4728"
               inkscape:label="earL">
              <path
                 inkscape:label="earL_top_fill"
                 sodipodi:nodetypes="ccccc"
                 inkscape:connector-curvature="0"
                 id="path4717"
                 d="m 84.166814,36.516973 c 12.720069,4.427521 19.611676,3.116249 26.780356,2.077786 L 84.661523,25.336507 82.74864,24.281124 84.166814,36.516973"
                 style="fill:#9f8f8d;fill-opacity:1;stroke:none;stroke-width:0.75px;stroke-linecap:butt;stroke-linejoin:miter;stroke-opacity:1" />
              <path
                 inkscape:label="earL_mid_fill"
                 sodipodi:nodetypes="ccccc"
                 inkscape:connector-curvature="0"
                 id="path4721"
                 d="m 85.820895,38.059701 26.212685,0.839552 43.28358,8.861941 C 139.98715,51.292673 124.1872,57.408819 107.3694,69.123134 95.549674,60.855257 90.795408,49.407924 85.820895,38.059701 Z"
                 style="fill:#cfaea2;fill-opacity:1;stroke:none;stroke-width:0.75px;stroke-linecap:butt;stroke-linejoin:miter;stroke-opacity:1" />
              <path
                 inkscape:label="earL_left_fill"
                 sodipodi:nodetypes="ccccc"
                 inkscape:connector-curvature="0"
                 id="path4719"
                 d="M 107.3694,69.123134 91.511198,52.238806 85.820149,54.412687 C 80.972568,65.480794 81.172202,78.801939 83.488807,90.85821 Z"
                 style="fill:#6e5954;fill-opacity:1;stroke:none;stroke-width:0.75px;stroke-linecap:butt;stroke-linejoin:miter;stroke-opacity:1" />
            </g>
            <path
               style="display:inline;fill:#ecdcdc;fill-opacity:1;fill-rule:nonzero;stroke:none;stroke-width:0.16014947;stroke-linecap:butt;stroke-linejoin:miter;stroke-miterlimit:4;stroke-dasharray:none;stroke-opacity:1;paint-order:normal"
               d="m 270.42953,41.254164 c -1.61604,-0.125814 -3.8601,-0.571023 -4.50934,-0.894627 -1.13799,-0.567207 -2.0329,-2.476045 -1.85944,-3.96616 0.16982,-1.458819 0.81449,-2.312591 2.04185,-2.704133 1.52114,-0.485258 4.18808,-0.239715 5.81147,0.535055 0.8354,0.3987 1.80608,1.412059 2.28559,2.38608 0.28623,0.581418 0.3555,0.861749 0.39395,1.594207 0.0423,0.80663 0.0197,0.94379 -0.24491,1.484652 -0.31052,0.634691 -0.90221,1.145519 -1.61522,1.394485 -0.43367,0.151428 -1.51791,0.231637 -2.30395,0.170441 z"
               id="path5454"
               inkscape:connector-curvature="0"
               transform="scale(0.75)" />
            <path
               style="display:inline;fill:#d2bbb5;fill-opacity:1;fill-rule:nonzero;stroke:none;stroke-width:0.16014947;stroke-linecap:butt;stroke-linejoin:miter;stroke-miterlimit:4;stroke-dasharray:none;stroke-opacity:1;paint-order:normal"
               d="m 263.38504,53.389431 c -9.15062,-5.733272 -12.327,-7.600949 -15.83687,-9.311895 -2.1868,-1.065996 -3.06593,-1.376744 -4.20219,-1.485348 -1.88637,-0.1803 -2.24548,-0.737519 -1.36231,-2.113818 0.46668,-0.727258 2.24665,-2.416872 4.08145,-3.874267 2.99579,-2.379572 3.84498,-2.910175 4.6575,-2.910175 0.42066,0 0.53387,0.05366 0.91287,0.432659 0.23797,0.237963 0.732,0.893418 1.09785,1.456568 0.81605,1.256149 1.41838,1.934196 2.47598,2.787235 3.06845,2.474965 8.00728,4.631502 12.36004,5.397006 1.1019,0.193787 1.7476,0.240725 3.23093,0.234868 4.22395,-0.01668 5.61092,-0.765965 9.62262,-5.19846 2.00085,-2.210726 2.74152,-2.885709 3.60424,-3.284622 0.48752,-0.225424 0.67505,-0.255236 1.32415,-0.210501 1.3845,0.09542 3.61888,1.061348 5.67643,2.453945 2.03555,1.377698 3.06178,2.317687 5.7022,5.222985 l 0.87668,0.964618 -3.10125,0.04566 c -3.39105,0.04993 -4.04356,0.128844 -6.39811,0.773761 -3.97469,1.088678 -8.42409,3.334659 -11.74552,5.92894 -1.38053,1.078303 -2.24364,1.887258 -4.51823,4.23474 -1.18552,1.223517 -2.20316,2.235346 -2.26143,2.24851 -0.0583,0.01317 -2.84692,-1.693422 -6.19703,-3.792414 z"
               id="path5456"
               inkscape:connector-curvature="0"
               transform="scale(0.75)" />
            <path
               style="display:inline;fill:#d2bbb5;fill-opacity:1;fill-rule:nonzero;stroke:none;stroke-width:0.16014947;stroke-linecap:butt;stroke-linejoin:miter;stroke-miterlimit:4;stroke-dasharray:none;stroke-opacity:1;paint-order:normal"
               d="m 270.55883,41.259013 c -0.0129,-0.01128 -0.35705,-0.05007 -0.76489,-0.08622 -0.40784,-0.03614 -0.87262,-0.08908 -1.03284,-0.117631 -0.16022,-0.02855 -0.39857,-0.07113 -0.52966,-0.09461 -0.13109,-0.02349 -0.35752,-0.07066 -0.50318,-0.10483 -0.14566,-0.03417 -0.40784,-0.08896 -0.58263,-0.121762 -0.38694,-0.07261 -0.45793,-0.09336 -0.79449,-0.232184 -0.14566,-0.06008 -0.30058,-0.08819 -0.34428,-0.06246 -0.0437,0.02573 -0.0795,-0.0065 -0.0795,-0.07166 0,-0.06514 -0.0477,-0.08897 -0.10593,-0.05297 -0.0583,0.03601 -0.10593,0.02264 -0.10593,-0.02971 0,-0.05235 -0.12013,-0.149915 -0.26696,-0.216814 -0.14683,-0.0669 -0.30909,-0.229476 -0.36059,-0.361283 -0.0515,-0.131808 -0.19068,-0.341832 -0.30929,-0.466721 -0.11861,-0.124889 -0.18675,-0.25598 -0.15142,-0.291313 0.0353,-0.03533 6.9e-4,-0.06424 -0.077,-0.06424 -0.0777,0 -0.10929,-0.03195 -0.0703,-0.07099 0.0391,-0.03905 -0.002,-0.182055 -0.0907,-0.317797 -0.0889,-0.135742 -0.13905,-0.246803 -0.11137,-0.246803 0.0277,0 -0.0127,-0.209619 -0.0898,-0.465819 -0.0771,-0.256201 -0.12344,-0.768648 -0.10297,-1.138771 0.0444,-0.802639 0.0588,-0.872616 0.28754,-1.400932 0.0977,-0.2256 0.17762,-0.423429 0.17762,-0.439618 0,-0.01619 0.16155,-0.190981 0.35899,-0.388423 0.30752,-0.307515 0.7604,-0.599828 1.04462,-0.674238 0.0437,-0.01144 0.10328,-0.03272 0.13241,-0.04728 0.22597,-0.112986 1.38921,-0.244016 2.06568,-0.232683 1.68015,0.02815 3.0751,0.355603 3.99954,0.938867 0.3062,0.193199 0.57922,0.352774 0.6067,0.354612 0.0782,0.0052 0.58444,0.529836 0.58444,0.605624 0,0.03729 0.0917,0.166218 0.2038,0.286498 0.37841,0.406055 0.91367,1.487035 0.94755,1.913607 0.0185,0.233051 0.0797,0.479703 0.13602,0.548115 0.21739,0.264172 -0.28111,1.814685 -0.70159,2.182181 -0.29825,0.260662 -1.05119,0.792943 -1.11544,0.788544 -0.0291,-0.002 -0.2389,0.03126 -0.46615,0.07389 -0.38377,0.07199 -1.7354,0.151996 -1.78803,0.105832 z"
               id="path5458"
               inkscape:connector-curvature="0"
               transform="scale(0.75)" />
            <path
               style="display:inline;fill:#d2bbb5;fill-opacity:1;fill-rule:nonzero;stroke:none;stroke-width:0.16014947;stroke-linecap:butt;stroke-linejoin:miter;stroke-miterlimit:4;stroke-dasharray:none;stroke-opacity:1;paint-order:normal"
               d="m 283.88292,53.749576 c -3.18246,-0.09314 -6.03958,-0.371758 -6.37911,-0.622066 -0.17586,-0.12965 -0.16348,-0.165532 0.18208,-0.527779 1.01299,-1.061922 6.03516,-2.96409 11.44067,-4.333207 4.07594,-1.032359 6.44559,-1.408588 9.724,-1.543878 4.90873,-0.202569 6.78639,-0.747482 9.3656,-2.717971 0.7163,-0.54724 1.79468,-1.357976 2.3964,-1.801635 1.071,-0.789656 1.09819,-0.802425 1.29032,-0.605976 0.63885,0.65322 3.45586,7.244081 3.73288,8.733707 0.23645,1.271454 -0.27474,1.589622 -3.82679,2.381832 -2.15348,0.480285 -6.196,0.798039 -12.72478,1.000203 -3.01019,0.09321 -12.48942,0.11614 -15.20127,0.03677 z"
               id="path5460"
               inkscape:connector-curvature="0"
               transform="scale(0.75)" />
            <path
               style="display:inline;fill:#d2bbb5;fill-opacity:1;fill-rule:nonzero;stroke:none;stroke-width:0.16014947;stroke-linecap:butt;stroke-linejoin:miter;stroke-miterlimit:4;stroke-dasharray:none;stroke-opacity:1;paint-order:normal"
               d="m 264.60326,65.935944 c -3.46432,-0.120647 -9.33484,-0.51748 -12.44703,-0.841389 -7.79089,-0.810857 -14.18779,-1.996193 -21.92797,-4.06322 -8.06506,-2.153788 -9.30104,-2.721384 -9.95064,-4.569603 -0.31581,-0.898548 -0.57123,-2.859256 -0.58088,-4.459157 -0.008,-1.317292 0.0115,-1.47475 0.21567,-1.747881 0.31767,-0.424923 0.67398,-0.395231 3.74805,0.31233 5.39846,1.242566 7.59728,1.654222 11.12288,2.082395 3.60146,0.437383 5.86777,0.612653 9.63983,0.745514 3.84515,0.135435 6.05076,0.493832 9.15128,1.487017 2.40452,0.770236 3.7014,1.329803 9.77314,4.216831 l 4.25281,2.02215 4.59253,-1.534275 c 2.52589,-0.843851 5.1169,-1.671398 5.75779,-1.838994 1.39641,-0.365167 3.38506,-0.705809 4.97881,-0.852838 1.68412,-0.155366 6.5691,-0.129072 9.63983,0.05189 6.21058,0.365991 10.20714,0.316003 13.71115,-0.171498 2.55321,-0.355218 3.67217,-0.613897 8.6103,-1.990514 3.60266,-1.004322 4.91761,-1.25354 5.53872,-1.049729 0.5859,0.192257 0.75727,0.58055 0.84878,1.923208 0.0857,1.257582 -0.0819,3.656115 -0.31953,4.571767 -0.61584,2.373164 -2.19899,3.710987 -5.26388,4.448161 -2.39894,0.576997 -4.83966,0.70879 -16.71664,0.90266 -3.87447,0.06324 -8.8321,0.162822 -11.01695,0.221286 -3.93474,0.105288 -21.31814,0.204932 -23.35805,0.133892 z"
               id="path5462"
               inkscape:connector-curvature="0"
               transform="scale(0.75)" />
            <path
               style="display:inline;fill:#d2bbb5;fill-opacity:1;fill-rule:nonzero;stroke:none;stroke-width:0.16014947;stroke-linecap:butt;stroke-linejoin:miter;stroke-miterlimit:4;stroke-dasharray:none;stroke-opacity:1;paint-order:normal"
               d="m 252.31512,51.114367 c -2.90426,-0.516908 -7.60536,-1.029165 -14.03601,-1.529435 -8.39192,-0.652845 -10.97301,-1.023611 -12.57291,-1.806058 -1.4394,-0.703951 -1.68915,-1.61668 -1.02353,-3.740557 0.56156,-1.791807 1.98251,-5.373425 2.1121,-5.323697 0.0705,0.02707 1.04082,0.672482 2.1562,1.434259 2.25559,1.540517 3.20737,2.104179 4.61415,2.732596 2.09296,0.934932 3.61246,1.41878 5.88357,1.873478 2.47511,0.49554 6.41024,1.922076 9.7944,3.550588 2.30994,1.111581 4.70914,2.5647 4.86512,2.94665 0.0712,0.174291 -0.12356,0.159322 -1.79309,-0.137824 z"
               id="path5464"
               inkscape:connector-curvature="0"
               transform="scale(0.75)" />
            <path
               style="display:inline;fill:#a36162;fill-opacity:1;fill-rule:nonzero;stroke:none;stroke-width:0.41458973;stroke-linecap:butt;stroke-linejoin:miter;stroke-miterlimit:4;stroke-dasharray:none;stroke-opacity:1;paint-order:markers fill stroke"
               d="m 241.80366,288.95304 c -5.42783,-0.73914 -10.78768,-4.48239 -14.72486,-10.28366 -1.37057,-2.01947 -2.80592,-4.79539 -3.72903,-7.21179 -0.52338,-1.37006 -1.63833,-4.9197 -2.08566,-6.64012 -0.31724,-1.22005 -0.43264,-2.34284 -0.26195,-2.54851 0.13974,-0.16838 0.45238,-0.16871 1.00506,-10e-4 0.55038,0.16697 1.02367,0.16575 1.68254,-0.004 2.04429,-0.52771 4.60648,-2.67725 4.96309,-4.16375 0.10136,-0.42253 0.0932,-0.46581 -0.21593,-1.15055 -0.17669,-0.39133 -0.30704,-0.7797 -0.28967,-0.86305 0.12654,-0.60712 2.01498,0.8347 3.72355,2.84293 1.55836,1.83165 2.8787,2.93251 5.06409,4.22224 0.54947,0.32428 1.09991,0.6589 1.2232,0.74361 1.28559,0.88327 3.25769,1.3132 6.34477,1.38317 3.41038,0.0773 5.65867,-0.29865 7.57169,-1.26611 0.79526,-0.40219 1.67087,-0.49712 2.3153,-0.251 2.13146,0.81401 3.43168,5.74088 3.11777,11.81404 -0.28624,5.53785 -1.75524,8.43005 -5.54589,10.91883 -1.63997,1.07674 -3.58923,1.89989 -5.42983,2.29295 -0.99259,0.21197 -3.69455,0.30692 -4.72824,0.16616 z"
               id="path4674"
               inkscape:connector-curvature="0"
               transform="scale(0.75)" />
            <path
               style="display:inline;fill:#8fd7e2;fill-opacity:1;fill-rule:nonzero;stroke:none;stroke-width:0.1880362;stroke-linecap:butt;stroke-linejoin:miter;stroke-miterlimit:4;stroke-dasharray:none;stroke-opacity:1;paint-order:normal"
               d="m 172.65265,232.54047 c -3.97571,-0.30813 -7.68894,-1.46508 -11.21536,-3.49444 -3.80833,-2.19158 -6.46761,-4.17368 -8.99808,-6.70672 -2.25221,-2.25449 -3.27251,-3.62279 -4.40834,-5.91191 -1.31066,-2.64149 -1.98103,-4.95947 -2.3561,-8.14677 -0.76557,-6.50583 0.0531,-11.95241 2.58934,-17.22637 2.08419,-4.33397 4.51945,-7.20637 8.21939,-9.69482 2.67521,-1.79925 4.26933,-2.33383 6.96517,-2.33574 3.58173,-0.003 9.54367,1.12088 12.56885,2.36836 5.03202,2.07504 14.14188,11.22297 17.25491,17.32702 1.03361,2.0267 1.92913,5.24461 2.34937,8.44215 0.20746,1.57848 0.20674,6.69964 -0.001,8.20895 -0.37348,2.71152 -1.08893,5.2538 -1.97765,7.02737 -2.62667,5.24192 -8.40703,8.98725 -15.3455,9.94297 -1.70283,0.23455 -4.1019,0.31953 -5.64484,0.19995 z"
               id="path4625"
               inkscape:connector-curvature="0"
               inkscape:label="eye_fill"
               transform="scale(0.75)" />
            <ellipse
               ry="3.4854732"
               rx="1.7380974"
               cy="73.482231"
               cx="197.21996"
               transform="matrix(0.8734332,0.48694395,-0.62526288,0.78041423,0,0)"
               id="path3795"
               style="display:inline;fill:#ffffff;fill-opacity:1;fill-rule:nonzero;stroke:none;stroke-width:0.84300172;stroke-linecap:butt;stroke-linejoin:miter;stroke-miterlimit:4;stroke-dasharray:none;stroke-opacity:1;paint-order:normal"
               inkscape:label="bottom_light" />
            <ellipse
               cx="179.83585"
               cy="33.629711"
               rx="6.8071394"
               ry="8.3248253"
               transform="matrix(0.75717885,0.65320763,-0.5214546,0.85327905,0,0)"
               id="path3797"
               style="display:inline;fill:#ffffff;fill-opacity:1;fill-rule:nonzero;stroke:none;stroke-width:1.13973522;stroke-linecap:butt;stroke-linejoin:miter;stroke-miterlimit:4;stroke-dasharray:none;stroke-opacity:1;paint-order:normal"
               inkscape:label="top_light_1" />
            <ellipse
               ry="3.4299955"
               rx="3.2321112"
               cy="140.65976"
               cx="122.353"
               id="path3801"
               style="display:inline;fill:#ffffff;fill-opacity:1;fill-rule:nonzero;stroke:none;stroke-width:1.1338582;stroke-linecap:butt;stroke-linejoin:miter;stroke-miterlimit:4;stroke-dasharray:none;stroke-opacity:1;paint-order:normal"
               inkscape:label="top_light_2" />
            <ellipse
               style="display:inline;fill:#7ba7cd;fill-opacity:1;fill-rule:nonzero;stroke:#000000;stroke-width:3.62089705;stroke-linecap:butt;stroke-linejoin:miter;stroke-miterlimit:4;stroke-dasharray:none;stroke-opacity:1;paint-order:markers fill stroke"
               id="path4628"
               cx="225.72012"
               cy="160.49152"
               rx="32.806103"
               ry="23.637465"
               inkscape:label="eye_fill" />
            <ellipse
               style="display:inline;fill:#ffffff;fill-opacity:1;fill-rule:nonzero;stroke:none;stroke-width:4.09880543;stroke-linecap:butt;stroke-linejoin:miter;stroke-miterlimit:4;stroke-dasharray:none;stroke-opacity:1;paint-order:markers fill stroke"
               id="path4631"
               cx="196.35359"
               cy="222.741"
               rx="4.0791154"
               ry="2.4987612"
               transform="matrix(0.94694025,-0.32140965,0.12994286,0.99152145,0,0)"
               inkscape:label="bottom_light" />
            <path
               style="display:inline;opacity:0.55938697;fill:#fcffff;fill-opacity:1;stroke:none;stroke-width:0.75px;stroke-linecap:butt;stroke-linejoin:miter;stroke-opacity:1;filter:url(#filter4817)"
               d="m 254.34736,121.90408 -22.95458,76.25143 c 11.69192,-7.43291 25.39873,-3.11231 33.24457,-32.98072 5.3009,-20.85686 -2.55471,-32.01945 -10.28999,-43.27071 z"
               id="path4803"
               inkscape:connector-curvature="0"
               sodipodi:nodetypes="cccc"
               inkscape:label="light"
               transform="matrix(1.0780219,0,0,0.99999997,-20.782594,0)" />
            <g
               style="display:inline"
               id="g4672"
               inkscape:label="top_light"
               transform="matrix(0.93162367,0,0,0.93969847,14.854153,8.8074518)">
              <ellipse
                 transform="rotate(-17.176418)"
                 ry="5.4104476"
                 rx="9.9813433"
                 cy="205.13425"
                 cx="155.40016"
                 id="path4633"
                 style="fill:#ffffff;fill-opacity:1;fill-rule:nonzero;stroke:none;stroke-width:3.53550005;stroke-linecap:butt;stroke-linejoin:miter;stroke-miterlimit:4;stroke-dasharray:none;stroke-opacity:1;paint-order:markers fill stroke" />
              <ellipse
                 transform="rotate(-18.004416)"
                 ry="0.49471092"
                 rx="2.5724967"
                 cy="212.80884"
                 cx="152.08717"
                 id="path4635"
                 style="fill:#ffffff;fill-opacity:1;fill-rule:nonzero;stroke:none;stroke-width:4.21033669;stroke-linecap:butt;stroke-linejoin:miter;stroke-miterlimit:4;stroke-dasharray:none;stroke-opacity:1;paint-order:markers fill stroke" />
              <ellipse
                 transform="matrix(0.96334113,-0.26827947,0,1,0,0)"
                 ry="1.0475227"
                 rx="1.8643378"
                 cy="212.49867"
                 cx="223.89406"
                 id="path4637"
                 style="fill:#ffffff;fill-opacity:1;fill-rule:nonzero;stroke:none;stroke-width:6.07052135;stroke-linecap:butt;stroke-linejoin:miter;stroke-miterlimit:4;stroke-dasharray:none;stroke-opacity:1;paint-order:markers fill stroke" />
              <ellipse
                 ry="1.6490364"
                 rx="1.451152"
                 cy="148.94827"
                 cx="217.54088"
                 id="path4639"
                 style="fill:#ffffff;fill-opacity:1;fill-rule:nonzero;stroke:none;stroke-width:3.53550005;stroke-linecap:butt;stroke-linejoin:miter;stroke-miterlimit:4;stroke-dasharray:none;stroke-opacity:1;paint-order:markers fill stroke" />
              <ellipse
                 ry="0.85749888"
                 rx="1.8469207"
                 cy="144.79269"
                 cx="215.10031"
                 id="path4641"
                 style="fill:#ffffff;fill-opacity:1;fill-rule:nonzero;stroke:none;stroke-width:3.53550005;stroke-linecap:butt;stroke-linejoin:miter;stroke-miterlimit:4;stroke-dasharray:none;stroke-opacity:1;paint-order:markers fill stroke" />
              <ellipse
                 ry="0.98942184"
                 rx="1.8469207"
                 cy="144.92462"
                 cx="208.50417"
                 id="path4643"
                 style="fill:#ffffff;fill-opacity:1;fill-rule:nonzero;stroke:none;stroke-width:3.53550005;stroke-linecap:butt;stroke-linejoin:miter;stroke-miterlimit:4;stroke-dasharray:none;stroke-opacity:1;paint-order:markers fill stroke" />
              <ellipse
                 ry="0.59365308"
                 rx="1.0224025"
                 cy="146.77155"
                 cx="204.05176"
                 id="path4645"
                 style="fill:#ffffff;fill-opacity:1;fill-rule:nonzero;stroke:none;stroke-width:3.53550005;stroke-linecap:butt;stroke-linejoin:miter;stroke-miterlimit:4;stroke-dasharray:none;stroke-opacity:1;paint-order:markers fill stroke" />
              <ellipse
                 ry="1.319229"
                 rx="1.3851905"
                 cy="154.55499"
                 cx="202.03992"
                 id="path4647"
                 style="fill:#ffffff;fill-opacity:1;fill-rule:nonzero;stroke:none;stroke-width:3.53550005;stroke-linecap:butt;stroke-linejoin:miter;stroke-miterlimit:4;stroke-dasharray:none;stroke-opacity:1;paint-order:markers fill stroke" />
              <ellipse
                 ry="0.32980725"
                 rx="1.9788437"
                 cy="156.13808"
                 cx="206.78915"
                 id="path4649"
                 style="fill:#ffffff;fill-opacity:1;fill-rule:nonzero;stroke:none;stroke-width:3.53550005;stroke-linecap:butt;stroke-linejoin:miter;stroke-miterlimit:4;stroke-dasharray:none;stroke-opacity:1;paint-order:markers fill stroke" />
              <ellipse
                 ry="0.69259524"
                 rx="2.2426894"
                 cy="144.56183"
                 cx="210.87877"
                 id="path4651"
                 style="fill:#ffffff;fill-opacity:1;fill-rule:nonzero;stroke:none;stroke-width:3.53550005;stroke-linecap:butt;stroke-linejoin:miter;stroke-miterlimit:4;stroke-dasharray:none;stroke-opacity:1;paint-order:markers fill stroke" />
              <ellipse
                 ry="1.6520667"
                 rx="1.6384056"
                 cy="146.41939"
                 cx="217.5322"
                 id="path4653"
                 style="fill:#ffffff;fill-opacity:1;fill-rule:nonzero;stroke:none;stroke-width:5.5996294;stroke-linecap:butt;stroke-linejoin:miter;stroke-miterlimit:4;stroke-dasharray:none;stroke-opacity:1;paint-order:markers fill stroke" />
              <ellipse
                 ry="0.89047962"
                 rx="3.5979295"
                 cy="156.10509"
                 cx="204.90622"
                 id="path4655"
                 style="fill:#ffffff;fill-opacity:1;fill-rule:nonzero;stroke:none;stroke-width:3.89247489;stroke-linecap:butt;stroke-linejoin:miter;stroke-miterlimit:4;stroke-dasharray:none;stroke-opacity:1;paint-order:markers fill stroke" />
              <ellipse
                 ry="2.2763567"
                 rx="2.4959044"
                 cy="153.6078"
                 cx="200.44348"
                 id="path4657"
                 style="fill:#ffffff;fill-opacity:1;fill-rule:nonzero;stroke:none;stroke-width:4.44399261;stroke-linecap:butt;stroke-linejoin:miter;stroke-miterlimit:4;stroke-dasharray:none;stroke-opacity:1;paint-order:markers fill stroke" />
            </g>
            <g
               transform="matrix(0.1,0,0,-0.1,0,300)"
               id="g4848"
               style="display:inline;fill:#000000;stroke:none"
               inkscape:label="body">
              <path
                 d="m 810,2753 c 0,-46 28,-143 60,-205 29,-57 28,-68 -9,-80 -8,-2 -15,-17 -17,-32 -2,-16 -10,-36 -18,-45 -19,-21 -21,-54 -4,-49 7,3 13,13 13,24 0,13 11,23 35,31 28,10 30,12 11,12 -17,1 -22,5 -17,17 3,9 6,20 6,25 0,24 40,4 69,-34 35,-47 95,-77 114,-58 8,8 -6,26 -47,63 -70,65 -173,229 -111,178 23,-19 154,-24 185,-7 22,12 31,11 66,-4 89,-37 344,-75 344,-51 0,6 -38,15 -165,36 -100,16 -173,41 -310,103 -66,31 -128,59 -137,64 -28,14 -42,11 -28,-6 7,-8 19,-15 27,-15 8,0 27,-8 41,-19 15,-10 56,-34 92,-52 l 65,-34 -53,-3 c -29,-2 -77,4 -106,12 -49,14 -55,19 -70,59 -9,23 -16,52 -16,64 0,12 -4,25 -10,28 -6,4 -10,-6 -10,-22 z"
                 id="path4692"
                 inkscape:connector-curvature="0" />
              <path
                 d="m 1855,2758 c -11,-6 -32,-24 -46,-40 -32,-34 -39,-35 -78,-3 l -30,26 -14,-23 c -8,-13 -18,-33 -22,-45 -3,-13 -13,-23 -21,-23 -10,0 -14,-13 -14,-45 0,-40 -3,-47 -27,-56 -16,-6 -44,-13 -63,-16 -42,-5 -151,-42 -165,-55 -13,-12 37,-4 184,29 113,25 116,25 184,9 125,-31 235,-39 439,-33 139,4 199,3 204,-5 5,-7 11,-5 20,6 12,17 22,16 160,-22 112,-31 152,-46 168,-65 12,-13 59,-53 106,-89 65,-50 94,-80 123,-129 31,-53 37,-59 37,-37 0,17 -16,44 -42,75 -40,46 -63,68 -157,149 -67,57 -67,58 -40,66 20,6 19,7 -7,3 -17,-2 -58,6 -94,19 l -63,23 51,6 c 60,7 216,58 292,95 47,23 55,31 57,57 1,17 -1,23 -3,14 -7,-24 -195,-107 -279,-124 -22,-5 -47,-10 -55,-12 -53,-12 -141,-12 -185,0 -49,13 -50,14 -47,49 4,39 -13,82 -28,73 -5,-3 -16,10 -24,30 -19,45 -39,52 -72,26 -35,-27 -48,-26 -68,4 -16,25 -83,65 -108,65 -7,0 -19,-9 -26,-21 -13,-21 -13,-21 -37,5 -13,14 -34,26 -45,26 -30,0 -60,-18 -60,-35 0,-23 -24,-18 -50,10 -27,28 -28,29 -55,13 z m 43,-28 c 18,-29 85,-60 131,-60 32,0 44,6 71,36 29,33 33,35 60,24 15,-6 38,-22 51,-36 l 22,-24 h -34 c -45,-1 -107,-29 -146,-68 l -31,-32 -88,55 c -48,30 -95,55 -106,55 -27,0 -22,15 15,44 39,31 39,31 55,6 z m 150,8 c 21,-21 14,-48 -12,-48 -13,0 -31,3 -40,6 -16,6 -22,35 -9,47 11,11 48,8 61,-5 z m -253,-73 c 22,-4 60,-19 85,-32 25,-14 34,-21 20,-18 -14,3 -54,8 -90,11 -136,10 -138,11 -120,59 l 10,26 28,-19 c 15,-11 46,-24 67,-27 z m 561,-10 c 18,-45 19,-42 -18,-51 -41,-10 -258,-11 -258,-2 0,14 113,48 159,48 34,0 56,6 72,20 13,10 25,19 27,20 2,0 10,-16 18,-35 z m -627,-45 c 29,-5 77,-10 105,-10 35,0 70,-9 112,-29 l 61,-29 54,18 c 42,15 72,17 139,13 63,-4 100,-1 142,11 71,20 68,21 68,-13 0,-48 -22,-61 -103,-62 -40,-1 -130,-2 -202,-4 -155,-4 -270,7 -375,36 -76,20 -78,21 -82,55 -3,27 -1,33 12,29 8,-2 39,-9 69,-15 z"
                 id="path4694"
                 inkscape:connector-curvature="0" />
              <path
                 d="m 2937,2520 c -90,-28 -86,-38 8,-16 32,7 55,19 55,27 0,5 -1,9 -2,8 -2,0 -29,-8 -61,-19 z"
                 id="path4696"
                 inkscape:connector-curvature="0" />
              <path
                 d="m 2775,2473 c -60,-6 -68,-23 -12,-23 52,0 154,-31 204,-61 l 32,-20 -1,30 c -1,27 -7,33 -52,50 -60,22 -115,30 -171,24 z"
                 id="path4698"
                 inkscape:connector-curvature="0" />
              <path
                 d="m 1135,2362 c -119,-63 -315,-226 -315,-262 0,-5 -15,-33 -33,-62 -64,-101 -122,-242 -147,-358 -18,-82 -20,-96 -26,-210 -12,-197 23,-352 96,-429 21,-22 35,-42 32,-45 -3,-3 2,-6 11,-6 9,0 17,-4 17,-10 0,-5 5,-10 11,-10 15,0 -63,99 -78,100 -7,0 -23,33 -35,72 -21,66 -23,92 -22,268 0,177 3,204 27,292 52,195 142,350 286,493 80,79 202,173 243,187 7,3 11,8 8,11 -3,3 -37,-11 -75,-31 z"
                 id="path4700"
                 inkscape:connector-curvature="0" />
              <path
                 d="m 1585,2360 c -27,-5 -69,-14 -92,-21 -38,-10 -43,-15 -43,-41 0,-25 3,-29 18,-23 62,27 153,37 302,31 85,-3 185,-9 223,-12 45,-5 67,-3 67,4 0,18 -29,41 -68,52 -49,14 -343,22 -407,10 z m 343,-20 c 90,-12 136,-34 52,-26 -196,21 -426,16 -493,-10 -9,-3 -17,-2 -17,4 0,8 61,24 140,36 52,7 248,5 318,-4 z"
                 id="path4702"
                 inkscape:connector-curvature="0" />
              <path
                 d="m 1197,2320 c -17,-97 -31,-147 -58,-208 -32,-72 -23,-76 11,-5 27,58 62,199 58,233 -3,18 -6,13 -11,-20 z"
                 id="path4704"
                 inkscape:connector-curvature="0" />
              <path
                 d="m 2860,2338 c 8,-8 43,-38 78,-68 l 64,-53 -4,33 c -3,28 -11,37 -53,60 -27,16 -61,31 -75,35 -22,6 -23,5 -10,-7 z"
                 id="path4706"
                 inkscape:connector-curvature="0" />
              <path
                 d="m 837,2333 c -29,-7 -64,-113 -38,-113 5,0 12,9 16,20 3,11 27,38 53,60 l 47,40 -30,-1 c -16,-1 -38,-3 -48,-6 z"
                 id="path4708"
                 inkscape:connector-curvature="0" />
              <path
                 d="m 2090,2265 c -9,-11 -10,-19 -3,-26 7,-7 14,-5 23,6 9,11 10,19 3,26 -7,7 -14,5 -23,-6 z"
                 id="path4710"
                 inkscape:connector-curvature="0" />
              <path
                 d="m 1405,2260 c -7,-12 2,-30 16,-30 5,0 9,9 9,20 0,21 -15,27 -25,10 z"
                 id="path4712"
                 inkscape:connector-curvature="0" />
              <path
                 d="m 828,2213 c -43,-53 -61,-103 -35,-103 6,1 24,28 39,60 27,59 25,77 -4,43 z"
                 id="path4714"
                 inkscape:connector-curvature="0" />
              <path
                 d="m 1456,2193 c -12,-13 -5,-43 13,-52 21,-12 31,-5 31,20 0,19 -33,43 -44,32 z"
                 id="path4716"
                 inkscape:connector-curvature="0" />
              <path
                 d="m 1996,2184 c -18,-18 -21,-40 -6,-49 17,-10 60,23 60,45 0,25 -32,27 -54,4 z"
                 id="path4718"
                 inkscape:connector-curvature="0" />
              <path
                 d="m 1385,2089 c -28,-22 -76,-60 -109,-84 l -58,-45 h 35 c 29,0 46,10 91,51 l 56,51 v -79 c 0,-69 3,-82 22,-99 21,-19 21,-19 14,0 -13,36 -25,101 -27,148 -2,34 2,53 16,68 32,36 11,30 -40,-11 z"
                 id="path4720"
                 inkscape:connector-curvature="0" />
              <path
                 d="m 1141,2039 c -38,-46 -69,-84 -68,-86 2,-1 13,0 26,4 22,6 128,149 118,160 -3,2 -37,-33 -76,-78 z"
                 id="path4722"
                 inkscape:connector-curvature="0" />
              <path
                 d="m 1630,2031 c -14,-15 -36,-34 -49,-43 -34,-24 -20,-45 43,-63 34,-10 63,-26 75,-41 13,-17 22,-21 27,-13 5,8 9,7 16,-5 5,-9 16,-16 25,-16 13,0 14,3 5,12 -25,25 -14,46 31,53 23,4 49,11 57,17 10,6 5,7 -17,3 -31,-6 -31,-6 -20,19 l 12,25 22,-21 c 13,-12 23,-18 23,-13 0,5 -25,32 -56,60 -32,31 -53,44 -50,34 3,-11 9,-28 12,-39 4,-14 1,-22 -12,-26 -11,-4 -26,-13 -35,-21 -14,-12 -21,-11 -52,9 -36,23 -49,59 -27,73 12,7 14,26 3,24 -5,-1 -19,-13 -33,-28 z m 46,-78 c 20,-13 39,-23 44,-23 21,0 80,43 80,58 0,15 2,15 10,2 5,-8 10,-20 10,-26 0,-12 -58,-41 -72,-36 -5,1 -8,-1 -8,-5 0,-5 -4,-14 -9,-22 -7,-11 -17,-7 -47,17 -25,20 -46,30 -59,27 -27,-7 -49,9 -42,29 8,21 25,21 23,0 0,-9 5,-19 12,-21 7,-3 10,1 6,11 -3,9 -3,24 2,34 7,15 8,15 11,-3 3,-11 20,-30 39,-42 z"
                 id="path4724"
                 inkscape:connector-curvature="0" />
              <path
                 d="m 2086,2039 c -2,-8 -11,-36 -19,-64 -17,-53 -16,-61 7,-52 9,4 17,27 21,62 7,52 1,86 -9,54 z"
                 id="path4726"
                 inkscape:connector-curvature="0" />
              <path
                 d="m 2550,2049 c 0,-4 16,-42 36,-85 20,-44 54,-127 75,-186 l 39,-108 h -26 c -21,0 -23,-3 -14,-19 6,-12 17,-17 29,-14 17,4 20,-5 30,-94 6,-54 13,-116 14,-138 1,-30 7,-41 21,-43 18,-4 19,1 12,88 -14,185 -44,297 -121,453 -39,80 -94,164 -95,146 z"
                 id="path4728"
                 inkscape:connector-curvature="0" />
              <path
                 d="m 1440,2036 c 0,-21 46,-122 67,-146 60,-72 58,-9 -2,76 -42,58 -65,83 -65,70 z"
                 id="path4730"
                 inkscape:connector-curvature="0" />
              <path
                 d="m 2120,2027 c 0,-20 46,-97 58,-97 10,0 8,10 -9,38 -24,40 -49,71 -49,59 z"
                 id="path4732"
                 inkscape:connector-curvature="0" />
              <path
                 d="m 1920,1973 c -29,-26 -69,-58 -89,-70 -60,-37 -5,-28 63,10 67,37 106,81 89,98 -7,7 -26,-4 -63,-38 z"
                 id="path4734"
                 inkscape:connector-curvature="0" />
              <path
                 d="m 1040,1955 c -8,-9 -8,-15 -2,-15 12,0 26,19 19,26 -2,2 -10,-2 -17,-11 z"
                 id="path4736"
                 inkscape:connector-curvature="0" />
              <path
                 d="m 1077,1936 c -110,-40 -211,-175 -224,-302 -6,-53 -7,-54 -37,-54 -39,0 -76,-25 -76,-50 0,-20 17,-27 80,-32 33,-3 35,-5 42,-48 12,-69 48,-161 80,-202 16,-21 27,-42 23,-47 -17,-28 64,-218 129,-304 41,-53 42,-59 21,-77 -9,-7 -13,-15 -10,-18 9,-9 65,-12 65,-3 0,13 -22,52 -51,91 -48,64 -44,73 14,41 29,-17 77,-39 107,-51 90,-34 100,-41 90,-60 -5,-9 -12,-39 -16,-66 -3,-27 -8,-52 -10,-55 -9,-15 -245,-39 -258,-27 -34,29 -163,-10 -214,-65 -23,-24 -25,-25 -58,-11 -36,15 -93,18 -198,10 -33,-2 -70,0 -83,5 -12,4 -44,11 -70,14 -27,4 -64,10 -83,15 -19,5 -53,11 -75,14 -76,10 -110,18 -121,27 -7,5 -22,38 -34,72 -12,34 -28,76 -35,92 -21,46 -63,176 -68,210 -2,17 -5,3 -6,-31 0,-33 6,-85 15,-115 15,-50 128,-338 239,-609 26,-63 56,-137 67,-165 11,-27 27,-64 34,-82 8,-17 14,-36 14,-42 0,-6 11,-11 25,-11 14,0 25,1 25,3 0,1 -9,25 -20,53 -10,29 -17,54 -14,56 2,3 -2,11 -11,18 -8,7 -15,17 -15,22 0,5 -10,30 -21,56 -12,25 -22,51 -23,57 -1,5 -8,21 -15,34 -26,47 2,48 101,3 l 93,-42 55,21 c 39,15 59,18 71,11 9,-6 139,-72 289,-147 C 1155,22 1190,7 1244,3 l 61,-4 -55,24 c -30,13 -188,91 -350,172 -289,145 -417,199 -444,189 -8,-3 -17,-1 -20,4 -6,10 -88,-15 -129,-39 -11,-6 -20,-9 -22,-7 -1,2 -16,35 -33,74 l -30,71 82,13 c 94,14 182,33 282,59 60,16 79,16 130,6 49,-9 66,-19 99,-53 24,-25 42,-53 43,-69 3,-43 34,-67 91,-69 37,-2 60,-10 87,-30 35,-27 37,-27 82,-14 26,7 69,15 95,18 38,3 47,7 45,21 -4,23 -94,27 -144,6 -36,-15 -38,-14 -71,11 -26,20 -46,26 -79,26 -34,-1 -47,3 -59,21 -8,12 -15,29 -15,38 0,9 -7,22 -15,29 -8,7 -13,16 -10,20 3,5 1,11 -5,15 -23,14 -8,45 38,77 45,31 51,32 152,34 121,2 217,-23 299,-78 100,-67 121,-105 86,-155 -15,-22 -99,-53 -180,-69 -24,-4 -33,-10 -27,-16 15,-15 142,-5 178,13 19,10 37,13 50,8 10,-5 127,-29 259,-54 132,-25 294,-57 360,-71 66,-14 133,-27 149,-31 16,-3 44,-20 62,-39 19,-18 53,-39 76,-46 24,-7 58,-23 77,-35 26,-18 48,-23 93,-23 48,0 66,-5 92,-25 33,-25 52,-32 42,-16 -3,5 1,12 10,15 11,4 15,2 11,-8 -5,-12 2,-13 31,-9 20,2 56,11 78,18 35,11 51,11 100,-1 87,-20 106,-19 102,9 -2,17 -10,23 -38,25 -59,5 -66,10 -42,33 24,22 37,61 29,84 -5,11 -1,12 19,5 34,-13 34,-13 34,15 0,14 -6,25 -12,25 -10,0 -10,2 -1,8 9,6 9,20 -3,60 -32,108 -169,214 -301,233 -58,8 -58,8 17,5 54,-2 87,-9 119,-26 55,-28 144,-110 165,-153 l 16,-32 v 31 c 0,32 -33,74 -96,123 -28,22 -28,22 -4,15 14,-4 41,-18 60,-31 30,-20 36,-21 38,-7 5,23 -24,51 -87,82 -51,25 -66,27 -170,27 -83,0 -115,-3 -118,-12 -6,-16 -28,-17 -51,-2 -26,17 -156,-30 -160,-58 -3,-18 -29,-39 -38,-31 -1,2 12,26 29,55 30,48 35,51 82,57 28,4 74,4 103,1 53,-6 67,6 41,32 -9,9 -5,14 17,20 38,10 302,10 332,0 21,-8 22,-6 22,46 0,44 -4,58 -25,77 l -24,23 24,29 c 14,16 25,40 25,53 0,21 -6,18 -54,-30 -82,-82 -188,-147 -266,-161 -48,-9 -67,-10 -72,-1 -13,21 4,29 49,24 41,-4 48,-1 94,38 64,55 127,129 192,225 47,69 51,80 54,140 2,45 0,57 -6,40 -27,-81 -123,-222 -224,-327 -91,-95 -132,-112 -91,-39 65,116 127,546 79,546 -8,0 -15,-6 -15,-12 -2,-88 -23,-265 -41,-336 l -22,-89 -53,-2 c -29,0 -86,-10 -126,-21 -218,-59 -270,-65 -513,-64 -293,1 -391,16 -625,94 -96,32 -200,70 -231,84 -59,28 -73,48 -108,157 -7,20 -21,45 -31,54 -11,10 -20,22 -20,28 0,5 19,-7 41,-28 122,-110 278,-116 422,-16 59,40 105,130 120,233 8,58 7,92 -6,168 -39,230 -113,344 -249,385 -63,18 -170,19 -221,1 z m 234,-43 c 108,-48 170,-150 196,-321 37,-242 -19,-378 -182,-443 -16,-6 -61,-12 -100,-12 -60,-1 -78,3 -124,28 -115,63 -210,228 -211,368 0,20 5,37 10,37 6,0 10,9 10,20 0,11 -4,20 -10,20 -5,0 -10,19 -10,43 0,90 90,218 185,264 42,20 62,23 120,20 41,-2 89,-12 116,-24 z M 850,1540 c 0,-5 -13,-10 -30,-10 -16,0 -30,5 -30,10 0,6 14,10 30,10 17,0 30,-4 30,-10 z M 2670,839 c 0,-12 -30,-19 -73,-18 l -42,1 40,13 c 42,13 75,15 75,4 z M 1433,813 c 15,-3 30,-10 34,-16 4,-6 0,-8 -11,-4 -10,4 -25,7 -35,7 -9,0 -26,7 -37,16 -19,15 -19,16 1,9 11,-3 32,-9 48,-12 z m 1117,-9 c 0,-14 9,-16 54,-12 l 55,5 -15,-30 c -9,-16 -13,-35 -10,-42 3,-8 -5,-15 -22,-18 -15,-3 -27,-5 -27,-4 -2,17 -48,97 -55,97 -5,0 -10,-4 -10,-8 0,-4 -12,-23 -28,-41 l -27,-33 -32,29 -31,28 67,21 c 83,27 81,27 81,8 z M 1449,770 c 25,0 29,-4 34,-32 2,-18 4,-34 3,-34 0,-1 -22,3 -48,9 -35,9 -48,16 -48,30 0,10 -11,22 -26,27 -14,6 -23,14 -19,19 3,6 19,4 40,-5 19,-8 47,-14 64,-14 z m 151,-10 c 0,-3 -4,-11 -9,-19 -8,-12 -16,-10 -45,13 -20,15 -36,28 -36,30 0,1 20,-2 45,-8 25,-6 45,-13 45,-16 z m 160,-17 c 41,-3 66,-9 56,-13 -10,-3 38,-4 107,-2 l 126,4 7,-26 c 14,-56 -26,-106 -85,-106 -31,0 -55,43 -48,86 4,25 2,34 -6,31 -20,-6 -38,-50 -33,-83 4,-26 0,-34 -21,-45 -14,-8 -33,-14 -42,-14 -8,0 -17,-9 -19,-20 -3,-16 -1,-17 7,-5 8,11 11,11 11,2 0,-30 -109,-45 -149,-20 -23,14 -46,62 -37,77 4,5 2,12 -3,15 -12,8 -22,82 -15,112 6,23 10,25 38,20 17,-4 65,-9 106,-13 z m 582,4 c 69,-18 91,-43 84,-90 -4,-22 -16,-55 -27,-76 -14,-26 -18,-29 -14,-11 5,19 4,22 -4,10 -6,-8 -11,-27 -11,-42 0,-16 -4,-28 -10,-28 -14,0 -13,63 1,77 12,12 4,33 -11,33 -22,0 -29,-37 -15,-83 8,-28 10,-49 4,-52 -9,-6 -14,2 -22,45 -3,14 -8,34 -12,46 -4,13 1,29 13,45 18,22 23,23 51,12 17,-6 31,-10 31,-8 0,2 3,11 7,21 4,12 3,15 -5,10 -6,-4 -30,-1 -53,5 -31,10 -45,10 -60,1 -31,-20 -78,-14 -104,12 -14,14 -27,21 -30,15 -8,-11 39,-59 58,-59 10,0 13,-8 9,-25 l -5,-26 -24,36 c -13,19 -25,35 -28,35 -2,0 -10,3 -19,6 -9,3 -16,2 -16,-4 0,-5 9,-12 20,-15 11,-3 25,-19 31,-36 6,-17 14,-31 19,-31 4,0 13,-13 20,-30 7,-16 18,-30 25,-30 19,0 26,42 10,60 -8,9 -12,25 -8,38 6,26 35,30 32,5 -4,-23 39,-149 54,-161 19,-14 70,-25 62,-12 -3,5 -2,10 4,10 5,0 12,-4 15,-9 6,-9 -36,-31 -58,-31 -7,0 -13,-6 -13,-13 0,-7 -10,-28 -24,-46 -20,-27 -29,-32 -54,-27 -16,3 -73,10 -126,17 -53,6 -100,14 -106,18 -5,3 -23,29 -40,57 l -31,51 36,21 c 21,11 54,25 76,31 37,10 41,8 85,-28 25,-22 64,-48 86,-60 71,-37 119,-21 71,24 -14,13 -26,33 -26,44 0,11 -4,23 -10,26 -13,8 -13,-21 1,-46 10,-19 8,-19 -30,3 -74,42 -171,124 -160,135 6,6 11,27 12,47 1,31 5,36 31,42 17,3 38,13 47,20 13,12 64,27 109,32 3,1 26,-4 52,-11 z m -977,-7 c 3,-5 -1,-10 -9,-10 -9,0 -16,5 -16,10 0,6 4,10 9,10 6,0 13,-4 16,-10 z m 191,-28 c 17,-9 22,-24 27,-72 3,-33 13,-72 22,-86 19,-29 18,-29 -11,-38 -17,-5 -23,-2 -27,16 -3,13 -17,65 -31,116 -29,105 -30,114 -13,91 7,-9 21,-21 33,-27 z m 1004,-42 c 16,-40 30,-73 30,-74 0,0 -32,-1 -70,-1 -59,0 -69,2 -64,15 3,8 8,30 11,48 5,27 50,91 60,87 2,-1 16,-34 33,-75 z m 375,70 c 3,-5 -1,-10 -10,-10 -9,0 -13,5 -10,10 3,6 8,10 10,10 2,0 7,-4 10,-10 z m -820,-15 c -21,-17 -37,-15 -43,3 -2,8 8,12 30,12 31,-1 32,-1 13,-15 z m -740,-35 c 10,-11 16,-22 13,-25 -9,-10 -65,20 -61,33 7,18 27,15 48,-8 z m 79,-10 c 28,-12 46,-26 46,-36 0,-12 -5,-14 -17,-9 -10,4 -30,10 -45,12 -18,4 -27,12 -31,29 -5,29 -9,28 47,4 z m 1520,-5 c 19,-29 20,-39 4,-28 -7,4 -53,10 -103,13 l -90,6 50,16 c 76,25 119,23 139,-7 z M 1341,645 c 26,-14 46,-20 50,-14 3,6 11,4 19,-6 11,-13 10,-15 -6,-9 -11,3 -7,-4 11,-17 74,-57 230,-238 175,-204 -5,3 -17,2 -26,-3 -12,-7 1,-11 47,-17 35,-5 66,-9 69,-10 3,-1 32,-5 65,-9 33,-5 67,-10 75,-11 41,-7 99,-15 135,-20 54,-6 116,-15 140,-20 37,-7 140,-19 163,-18 21,1 23,-2 17,-25 -4,-15 -7,-28 -8,-28 -1,-1 -87,16 -192,37 -104,22 -269,53 -365,70 -95,17 -178,33 -184,36 -5,3 -6,1 -2,-5 5,-8 0,-12 -13,-12 -12,0 -21,4 -21,10 0,5 -6,7 -12,5 -7,-3 -19,-1 -27,4 -10,7 -11,13 -2,30 13,23 26,27 36,11 3,-5 25,-9 48,-9 l 42,2 -48,10 c -38,8 -46,14 -42,27 10,33 -39,120 -69,120 -5,0 2,-13 17,-28 42,-44 32,-48 -17,-5 -24,21 -74,53 -110,71 -70,35 -86,55 -22,28 20,-9 52,-23 71,-31 59,-26 39,-7 -32,29 -44,22 -60,35 -47,36 12,0 41,-11 65,-25 z M 353,599 491,575 368,554 c -68,-11 -131,-24 -140,-28 -12,-6 -20,1 -33,31 -9,21 -21,46 -27,57 -9,16 -7,18 19,13 15,-3 90,-16 166,-28 z m 1163,-22 15,-27 -45,32 c -53,39 -58,51 -15,35 17,-7 37,-24 45,-40 z m 527,-35 c -26,-8 -59,-22 -73,-32 -23,-16 -28,-16 -63,-1 l -38,16 24,23 c 20,19 28,21 52,12 33,-13 90,-4 107,17 10,13 14,13 25,-3 12,-17 9,-20 -34,-32 z M 850,528 c 0,-6 -7,-5 -15,2 -8,7 -15,17 -15,22 0,6 7,5 15,-2 8,-7 15,-17 15,-22 z m 708,-31 c 24,-27 8,-30 -17,-3 -14,15 -20,29 -15,37 6,10 9,10 12,-1 3,-8 11,-23 20,-33 z m 1362,3 c 0,-5 -12,-2 -27,6 -16,7 -33,14 -40,14 -6,0 -14,4 -18,9 -3,6 15,3 40,-5 25,-9 45,-20 45,-24 z m -170,-24 c 78,-32 141,-78 179,-131 34,-48 53,-125 30,-125 -9,0 -14,12 -15,34 -1,45 -60,125 -122,164 -110,70 -237,85 -334,40 -56,-26 -75,-25 -42,3 15,12 14,14 -7,21 -19,6 -17,7 8,3 18,-2 49,2 70,10 52,20 158,11 233,-19 z m -1007,-1 c 66,10 164,11 173,2 4,-4 -5,-28 -19,-55 -18,-32 -32,-46 -44,-44 -10,1 -65,10 -123,18 -83,12 -109,19 -123,36 -10,12 -17,28 -15,37 4,22 49,30 76,13 17,-11 36,-13 75,-7 z m 1221,-4 c -2,-3 -12,3 -22,13 -16,17 -16,18 5,5 12,-7 20,-15 17,-18 z M 1990,366 c 0,-1 -18,0 -40,3 -44,6 -44,7 -22,63 l 15,38 23,-51 c 13,-28 24,-52 24,-53 z m 656,65 c 93,-9 153,-31 186,-68 16,-18 15,-19 -32,-41 -64,-30 -149,-115 -180,-181 l -25,-53 -58,5 c -32,3 -64,10 -72,17 -8,6 -19,9 -24,6 -5,-4 -13,-1 -17,5 -4,7 -3,9 4,5 7,-4 10,21 10,77 1,101 34,214 66,227 27,11 33,11 142,1 z m -211,-50 c -18,-37 -37,-169 -29,-209 6,-27 4,-29 -24,-24 -17,2 -41,16 -54,31 -22,23 -24,30 -16,70 8,34 23,58 71,106 34,35 63,62 65,60 2,-2 -4,-17 -13,-34 z M 534,341 c 50,-25 59,-41 24,-42 -13,0 -36,-3 -51,-5 -17,-3 -48,5 -80,19 -29,14 -59,27 -67,29 -23,8 49,26 91,23 20,-1 58,-12 83,-24 z m 2356,-68 c 14,-27 24,-52 23,-58 -12,-75 -41,-122 -81,-131 -15,-4 -32,-11 -38,-16 -17,-13 -126,-13 -149,0 -20,11 -19,12 8,65 33,63 94,126 157,161 25,13 47,25 51,25 3,1 16,-20 29,-46 z"
                 id="path4738"
                 inkscape:connector-curvature="0" />
              <path
                 d="m 1115,1891 c -22,-10 -44,-18 -50,-19 -59,-9 -116,-178 -123,-365 -4,-125 1,-173 21,-200 10,-14 12,11 13,135 1,157 8,197 56,328 19,54 22,56 95,90 41,19 77,38 79,43 10,14 -51,6 -91,-12 z"
                 id="path4740"
                 inkscape:connector-curvature="0" />
              <path
                 d="m 1263,1883 c -25,-9 -12,-33 58,-115 64,-75 146,-145 156,-134 3,2 -1,24 -9,47 -9,32 -35,66 -93,126 -78,81 -87,87 -112,76 z m 161,-171 c 9,-21 -17,-1 -60,48 -74,84 -78,95 -11,30 36,-36 68,-71 71,-78 z"
                 id="path4742"
                 inkscape:connector-curvature="0" />
              <path
                 d="m 1143,1807 c -88,-45 -133,-78 -78,-57 52,20 165,82 165,91 0,11 9,15 -87,-34 z"
                 id="path4744"
                 inkscape:connector-curvature="0" />
              <path
                 d="m 1192,1690 c -41,-9 -87,-51 -115,-105 -16,-30 -21,-59 -21,-115 -1,-86 15,-124 71,-173 72,-63 92,-71 179,-72 72,0 85,3 123,28 53,35 74,82 75,167 1,78 -18,122 -81,186 -65,68 -156,100 -231,84 z m 135,-53 c 41,-22 100,-83 123,-127 24,-48 26,-129 4,-176 -37,-78 -157,-104 -244,-52 -89,52 -120,102 -120,192 0,66 32,132 80,164 29,20 44,23 82,18 26,-3 60,-11 75,-19 z"
                 id="path4746"
                 inkscape:connector-curvature="0" />
              <path
                 d="m 1679,704 c 46,-40 49,-63 14,-104 -29,-34 -35,-22 -11,21 l 23,41 -28,24 c -16,13 -32,24 -38,24 -15,0 -10,-17 7,-24 12,-5 15,-18 14,-54 -4,-67 -3,-70 24,-65 16,3 31,-2 46,-17 24,-24 37,-21 22,6 -13,24 3,59 35,73 32,15 48,14 63,-4 7,-9 15,-13 18,-10 3,3 -3,14 -13,25 -17,19 -17,21 -2,38 10,10 17,25 17,33 0,11 -2,12 -9,1 -8,-14 -43,-37 -72,-48 -8,-3 -27,-24 -42,-47 -15,-22 -27,-34 -27,-26 0,8 7,24 15,36 10,14 12,24 5,28 -5,3 -10,11 -10,17 0,6 6,6 15,-2 24,-20 29,-4 7,20 -11,12 -25,19 -31,16 -5,-4 -12,-2 -15,3 -3,5 -20,14 -38,20 -32,11 -31,11 11,-25 z"
                 id="path4750"
                 inkscape:connector-curvature="0" />
              <path
                 d="m 1760,711 c 0,-15 29,-33 41,-25 9,5 7,11 -6,21 -22,15 -35,17 -35,4 z"
                 id="path4752"
                 inkscape:connector-curvature="0" />
              <path
                 d="m 1981,694 c -29,-37 -27,-44 17,-44 h 37 l -23,18 c -18,14 -20,20 -10,30 6,6 9,14 6,17 -3,3 -15,-6 -27,-21 z"
                 id="path4754"
                 inkscape:connector-curvature="0" />
              <path
                 d="m 1940,689 c -7,-11 -10,-23 -7,-25 2,-2 9,7 15,21 14,30 7,33 -8,4 z"
                 id="path4756"
                 inkscape:connector-curvature="0" />
              <path
                 d="m 2025,699 c -10,-15 3,-25 16,-12 7,7 7,13 1,17 -6,3 -14,1 -17,-5 z"
                 id="path4758"
                 inkscape:connector-curvature="0" />
              <path
                 d="m 1631,654 c 0,-11 3,-14 6,-6 3,7 2,16 -1,19 -3,4 -6,-2 -5,-13 z"
                 id="path4760"
                 inkscape:connector-curvature="0" />
              <path
                 d="m 1949,627 c 5,-5 19,-7 32,-5 20,3 19,5 -9,9 -20,3 -29,2 -23,-4 z"
                 id="path4762"
                 inkscape:connector-curvature="0" />
              <path
                 d="m 1788,609 c -12,-7 -18,-22 -17,-47 v -37 l 12,35 c 10,29 17,35 40,35 15,-1 26,4 24,10 -5,14 -39,17 -59,4 z"
                 id="path4764"
                 inkscape:connector-curvature="0" />
              <path
                 d="m 1697,539 c 7,-7 15,-10 18,-7 3,3 -2,9 -12,12 -14,6 -15,5 -6,-5 z"
                 id="path4766"
                 inkscape:connector-curvature="0" />
              <path
                 d="m 2268,729 c -31,-17 -19,-30 12,-14 17,9 30,18 30,20 0,8 -24,5 -42,-6 z"
                 id="path4768"
                 inkscape:connector-curvature="0" />
              <path
                 d="m 2208,719 c -47,-27 20,-64 68,-38 19,9 32,10 63,1 50,-15 58,-15 64,2 4,10 1,13 -9,9 -9,-3 -32,0 -52,6 -31,10 -42,10 -66,-3 -34,-17 -50,-12 -43,15 6,21 0,23 -25,8 z"
                 id="path4770"
                 inkscape:connector-curvature="0" />
              <path
                 d="m 2340,720 c 8,-5 24,-10 34,-10 26,0 18,6 -19,14 -22,5 -26,4 -15,-4 z"
                 id="path4772"
                 inkscape:connector-curvature="0" />
              <path
                 d="m 2120,618 c 0,-8 18,-32 40,-53 46,-45 51,-42 14,12 -29,43 -54,62 -54,41 z"
                 id="path4774"
                 inkscape:connector-curvature="0" />
              <path
                 d="m 2194,421 c 11,-12 24,-17 34,-13 14,6 13,7 -5,10 -13,2 -23,8 -23,13 0,5 -5,9 -12,9 -6,0 -4,-8 6,-19 z"
                 id="path4776"
                 inkscape:connector-curvature="0" />
              <path
                 d="m 1930,530 c 0,-5 7,-7 15,-4 8,4 15,8 15,10 0,2 -7,4 -15,4 -8,0 -15,-4 -15,-10 z"
                 id="path4778"
                 inkscape:connector-curvature="0" />
              <path
                 d="m 1990,1900 c -19,-11 -31,-19 -27,-20 11,0 67,29 67,35 0,7 -1,7 -40,-15 z"
                 id="path4780"
                 inkscape:connector-curvature="0" />
              <path
                 d="m 2049,1896 c -89,-36 -159,-96 -212,-181 -37,-61 -78,-183 -80,-240 l -2,-50 h -89 c -62,0 -90,-4 -93,-12 -3,-9 10,-13 45,-13 27,0 69,-3 94,-6 45,-6 45,-6 57,-60 15,-63 71,-154 132,-209 56,-52 178,-110 259,-125 75,-14 164,-6 237,22 112,42 225,155 254,256 l 12,42 102,-6 c 135,-9 235,2 235,25 0,15 -9,16 -96,7 -68,-6 -116,-5 -164,3 l -67,12 10,50 c 11,54 2,109 -35,227 -39,125 -144,225 -263,252 -27,7 -66,16 -86,21 -70,17 -189,10 -250,-15 z m 262,-22 c 49,-9 108,-29 143,-47 158,-84 233,-323 167,-527 -22,-66 -33,-83 -95,-146 -95,-95 -152,-118 -291,-119 -100,0 -101,0 -196,47 -109,53 -169,111 -216,206 -25,50 -28,68 -27,152 1,165 72,314 182,382 110,68 187,80 333,52 z"
                 id="path4782"
                 inkscape:connector-curvature="0"
                 inkscape:label="glassesR" />
              <path
                 d="m 2200,1874 c 0,-4 10,-15 22,-25 11,-11 19,-20 17,-22 -2,-2 -44,-20 -93,-41 -107,-45 -166,-81 -166,-100 0,-7 -7,-19 -15,-26 -19,-16 -19,-40 0,-40 8,0 54,22 102,49 49,26 116,62 150,80 l 63,31 42,-31 c 24,-17 66,-41 95,-54 50,-23 164,-57 170,-51 13,12 -17,37 -58,49 -27,8 -83,34 -124,58 -68,39 -74,44 -60,59 8,9 15,22 15,28 0,14 -39,16 -59,3 -10,-7 -24,-2 -44,15 -27,22 -57,32 -57,18 z m -119,-165 c -40,-22 -76,-37 -79,-34 -7,6 -10,4 67,43 91,46 100,39 12,-9 z"
                 id="path4784"
                 inkscape:connector-curvature="0" />
              <path
                 d="m 2023,1829 c -18,-12 -33,-25 -33,-29 0,-5 -23,-39 -51,-75 -67,-87 -53,-110 18,-30 42,46 113,155 101,155 -2,0 -18,-10 -35,-21 z"
                 id="path4786"
                 inkscape:connector-curvature="0" />
              <path
                 d="m 2475,1778 c 21,-29 45,-44 45,-28 0,5 -14,19 -32,32 l -32,22 z"
                 id="path4788"
                 inkscape:connector-curvature="0" />
              <path
                 d="m 2240,1725 c 0,-6 76,-45 87,-45 4,0 -9,11 -29,25 -34,23 -58,32 -58,20 z"
                 id="path4790"
                 inkscape:connector-curvature="0" />
              <path
                 d="m 1856,1643 c -6,-14 -5,-15 5,-6 7,7 10,15 7,18 -3,3 -9,-2 -12,-12 z"
                 id="path4792"
                 inkscape:connector-curvature="0" />
              <path
                 d="m 1863,1605 c -18,-8 -33,-19 -33,-25 0,-13 -1,-14 56,14 53,27 33,36 -23,11 z"
                 id="path4796"
                 inkscape:connector-curvature="0" />
              <path
                 d="m 2489,1870 c 29,-16 61,-35 70,-42 14,-12 15,-11 2,5 -14,18 -102,67 -118,67 -4,0 16,-14 46,-30 z"
                 id="path4800"
                 inkscape:connector-curvature="0" />
              <path
                 d="m 1470,1840 c 6,-11 13,-20 16,-20 2,0 0,9 -6,20 -6,11 -13,20 -16,20 -2,0 0,-9 6,-20 z"
                 id="path4802"
                 inkscape:connector-curvature="0" />
              <path
                 d="m 1653,1815 c -15,-13 -23,-25 -16,-25 7,0 28,-14 48,-31 l 36,-32 22,20 c 12,11 30,23 40,26 24,9 21,22 -9,46 -33,26 -48,27 -35,2 8,-14 7,-20 -4,-25 -25,-9 -46,4 -40,25 9,26 -9,24 -42,-6 z m 46,-32 c 21,-16 24,-16 49,7 11,11 23,16 26,11 3,-4 -8,-18 -25,-30 l -31,-23 -26,24 c -15,12 -29,24 -31,25 -1,1 1,7 5,14 6,10 9,10 12,-1 3,-8 12,-20 21,-27 z"
                 id="path4804"
                 inkscape:connector-curvature="0" />
              <path
                 d="m 1552,1793 c 29,-108 120,-243 163,-243 27,0 23,16 -9,42 -36,29 -117,144 -141,201 -8,20 -17,37 -19,37 -3,0 0,-17 6,-37 z"
                 id="path4806"
                 inkscape:connector-curvature="0" />
              <path
                 d="m 1497,1790 c 3,-11 9,-22 13,-25 5,-3 6,4 3,15 -3,11 -9,22 -13,25 -5,3 -6,-4 -3,-15 z"
                 id="path4808"
                 inkscape:connector-curvature="0" />
              <path
                 d="m 2605,1765 c 41,-56 50,-65 32,-30 -8,17 -25,39 -38,50 -19,16 -18,13 6,-20 z"
                 id="path4810"
                 inkscape:connector-curvature="0" />
              <path
                 d="m 830,1749 c -25,-16 -47,-35 -49,-41 -2,-7 7,-5 23,5 14,10 30,16 34,13 5,-3 16,8 26,25 9,16 16,29 14,28 -2,0 -23,-14 -48,-30 z"
                 id="path4812"
                 inkscape:connector-curvature="0" />
              <path
                 d="m 732,1672 c -12,-28 -27,-86 -33,-129 -13,-87 -6,-276 11,-338 16,-57 79,-195 104,-228 45,-60 100,-118 131,-137 47,-29 127,-52 139,-40 7,7 4,10 -7,10 -34,0 -117,51 -166,101 -140,143 -229,462 -190,674 6,33 17,72 26,88 8,16 13,33 11,39 -2,6 -14,-12 -26,-40 z"
                 id="path4814"
                 inkscape:connector-curvature="0" />
              <path
                 d="m 1543,1643 c 6,-24 16,-43 23,-43 6,0 25,-7 43,-16 47,-24 48,-11 1,21 -22,16 -49,40 -60,54 l -18,26 z"
                 id="path4816"
                 inkscape:connector-curvature="0" />
              <path
                 d="m 1730,1648 c 0,-8 7,-21 15,-28 15,-12 35,-6 35,11 0,6 -5,7 -12,3 -6,-4 -17,1 -25,11 -11,16 -13,16 -13,3 z"
                 id="path4818"
                 inkscape:connector-curvature="0" />
              <path
                 d="m 745,1590 c -3,-5 -1,-10 4,-10 6,0 11,5 11,10 0,6 -2,10 -4,10 -3,0 -8,-4 -11,-10 z"
                 id="path4820"
                 inkscape:connector-curvature="0" />
              <path
                 d="m 1580,1560 c 8,-5 24,-10 34,-10 26,0 18,6 -19,14 -22,5 -26,4 -15,-4 z"
                 id="path4822"
                 inkscape:connector-curvature="0" />
              <path
                 d="m 890,1274 c 0,-5 12,-22 26,-39 l 26,-30 -23,35 c -29,45 -29,45 -29,34 z"
                 id="path4824"
                 inkscape:connector-curvature="0" />
              <path
                 d="m 1554,1125 c -9,-48 8,-83 46,-97 24,-8 30,-16 30,-38 0,-101 128,-212 227,-197 101,16 153,177 82,253 -18,19 -28,22 -69,17 -50,-6 -85,7 -108,39 -17,24 -28,23 -64,-7 -55,-46 -118,-28 -118,34 0,36 -19,33 -26,-4 z m 188,-70 c 19,-25 83.4546,-57.04748 69.4546,-34.0475 -4,7 -40.6203,10.0716 -32.6203,6.0716 6,-4 9.1657,7.9759 6.1657,2.9759 -12,-19 72,-28 105,-10 25,14 42,-16 42,-75 0,-54 -14,-80 -54,-101 -80,-41 -176,24 -211,143 -14,45 -14,51 -1,46 17,-6 56,25 48,38 -12,20 10,7 28,-16 z"
                 id="path4826"
                 inkscape:connector-curvature="0"
                 sodipodi:nodetypes="ccscccccsccccccsccccc" />
              <path
                 d="m 314,305 c 8,-19 19,-25 45,-25 40,0 39,1 -15,28 l -42,21 z"
                 id="path4828"
                 inkscape:connector-curvature="0" />
              <path
                 d="m 1336,264 c -60,-30 -115,-54 -122,-54 -25,0 -104,-40 -104,-52 0,-7 63,-44 141,-83 125,-62 147,-69 207,-72 37,-2 60,0 52,3 -110,44 -247,97 -294,115 l -59,22 34,17 c 19,9 83,45 144,79 60,34 116,62 125,62 31,-1 119,-20 220,-49 108,-31 172,-43 343,-63 110,-13 139,-7 50,11 -32,6 -85,17 -118,25 -224,54 -291,67 -410,80 -27,3 -61,7 -75,9 -17,3 -61,-13 -134,-50 z"
                 id="path4830"
                 inkscape:connector-curvature="0" />
              <path
                 d="m 373,262 c -18,-9 -33,-19 -33,-24 0,-10 3,-10 34,2 20,7 36,4 76,-17 27,-14 50,-29 50,-33 0,-15 -81,-40 -108,-34 l -27,7 26,-21 26,-21 51,24 c 27,13 62,27 77,31 26,7 26,7 -17,31 -24,13 -61,35 -83,47 -38,22 -42,23 -72,8 z"
                 id="path4832"
                 inkscape:connector-curvature="0" />
              <path
                 d="M 571,260 517,243 631,183 C 830,77 1020,-7 1020,10 c 0,6 -12,15 -27,21 -38,14 -327,156 -370,182 l -35,20 23,18 c 34,25 22,28 -40,9 z"
                 id="path4834"
                 inkscape:connector-curvature="0" />
              <path
                 d="m 1077,169 c 7,-7 15,-10 18,-7 3,3 -2,9 -12,12 -14,6 -15,5 -6,-5 z"
                 id="path4836"
                 inkscape:connector-curvature="0" />
              <path
                 d="m 516,136 -70,-32 67,-47 c 106,-76 134,-79 43,-4 l -54,44 40,23 c 38,21 41,22 81,6 23,-9 60,-27 81,-40 L 743,62 698,42 C 673,31 649,17 646,11 637,-4 634,-4 729,29 l 84,29 -111,56 c -62,31 -113,56 -114,55 -2,0 -34,-15 -72,-33 z"
                 id="path4838"
                 inkscape:connector-curvature="0" />
              <path
                 d="M 2045,79 C 1930,1 1929,0 1971,0 c 29,0 47,11 109,70 41,38 71,69 65,69 -5,0 -50,-27 -100,-60 z"
                 id="path4840"
                 inkscape:connector-curvature="0" />
              <path
                 d="M 399,93 C 417,60 497,0 522,0 c 14,0 1,14 -40,44 -33,24 -63,49 -66,55 -12,19 -28,13 -17,-6 z"
                 id="path4842"
                 inkscape:connector-curvature="0" />
              <path
                 d="m 835,30 c -4,-6 -10,-8 -15,-5 -4,2 -25,-2 -46,-9 C 736,2 738,2 835,2 l 100,1 -40,18 c -48,21 -52,22 -60,9 z"
                 id="path4844"
                 inkscape:connector-curvature="0" />
              <path
                 d="m 56,12 c -3,-5 8,-6 25,-4 16,2 29,6 29,8 0,8 -49,4 -54,-4 z"
                 id="path4846"
                 inkscape:connector-curvature="0" />
            </g>
            <path
               style="fill:#000000;fill-opacity:1;stroke:none;stroke-width:0.75px;stroke-linecap:butt;stroke-linejoin:miter;stroke-opacity:1"
               d="m 145.77481,252.4418 0.98141,-4.16095 c -1.11475,-1.63946 -3.36047,-4.64811 -5.94893,-6.47926 -3.2158,-2.32702 -3.07933,-1.92588 -4.12453,-2.60107 l -13.86254,-6.67908 -3.56191,2.37461 15.5669,7.25575 z"
               id="path4868"
               inkscape:connector-curvature="0"
               sodipodi:nodetypes="cccccccc" />
          </g>
        </g>
      </g>
    </g>
  </g>
</svg>
